<?xml version="1.0" encoding="UTF-8" standalone="no"?>
<!-- Created with Inkscape (http://www.inkscape.org/) -->

<svg
   xmlns:dc="http://purl.org/dc/elements/1.1/"
   xmlns:cc="http://creativecommons.org/ns#"
   xmlns:rdf="http://www.w3.org/1999/02/22-rdf-syntax-ns#"
   xmlns:svg="http://www.w3.org/2000/svg"
   xmlns="http://www.w3.org/2000/svg"
   xmlns:sodipodi="http://sodipodi.sourceforge.net/DTD/sodipodi-0.dtd"
   xmlns:inkscape="http://www.inkscape.org/namespaces/inkscape"
   width="170.3595mm"
   height="135.8779mm"
   viewBox="0 0 170.3595 135.8779"
   version="1.1"
   id="svg8"
   inkscape:version="0.92.4 (5da689c313, 2019-01-14)"
   sodipodi:docname="kuadro-logo-mobile.svg">
  <defs
     id="defs2">
    <style
       id="style10">.cls-1{fill:#f7e805;}.cls-1,.cls-2,.cls-3,.cls-4{fill-rule:evenodd;}.cls-2{fill:#cfc208;}.cls-3,.cls-6{fill:green;}.cls-4,.cls-5{fill:#fff;}.cls-7{fill:#4d4d4d;}</style>
  </defs>
  <sodipodi:namedview
     id="base"
     pagecolor="#ffffff"
     bordercolor="#666666"
     borderopacity="1.0"
     inkscape:pageopacity="0.0"
     inkscape:pageshadow="2"
     inkscape:zoom="0.35"
     inkscape:cx="327.65349"
     inkscape:cy="259.74259"
     inkscape:document-units="mm"
     inkscape:current-layer="layer1"
     showgrid="false"
     inkscape:window-width="1366"
     inkscape:window-height="705"
     inkscape:window-x="-8"
     inkscape:window-y="-8"
     inkscape:window-maximized="1"
     showguides="false"
     units="mm"
     fit-margin-top="0"
     fit-margin-left="0"
     fit-margin-right="0"
     fit-margin-bottom="0">
    <inkscape:grid
       type="xygrid"
       id="grid3751"
       originx="-19.141682"
       originy="-120.72344" />
  </sodipodi:namedview>
  <metadata
     id="metadata5">
    <rdf:RDF>
      <cc:Work
         rdf:about="">
        <dc:format>image/svg+xml</dc:format>
        <dc:type
           rdf:resource="http://purl.org/dc/dcmitype/StillImage" />
        <dc:title></dc:title>
      </cc:Work>
    </rdf:RDF>
  </metadata>
  <g
     inkscape:label="Camada 1"
     inkscape:groupmode="layer"
     id="layer1"
     style="display:inline"
     transform="translate(-19.141682,-40.398677)">
    <g
       id="layer1-2"
       inkscape:label="Camada 1"
       transform="matrix(3.672862,0,0,3.672862,-277.35107,-82.913542)">
      <g
         transform="matrix(0.26458333,0,0,0.26458333,36.124073,96.317925)"
         id="g124">
        <polygon
           transform="translate(168.57143,-237.14286)"
           style="fill:#f7e805;fill-rule:evenodd"
           class="cls-1"
           points="167.848,0 167.848,133.502 152.47,133.502 152.47,15.084 22.1,15.084 22.1,133.502 6.723,133.502 6.723,0 "
           id="polygon16" />
        <polygon
           transform="translate(168.57143,-237.14286)"
           style="fill:#f7e805;fill-rule:evenodd"
           class="cls-1"
           points="175.307,132.338 175.307,139.824 0,139.824 0,132.338 "
           id="polygon18" />
        <polygon
           transform="translate(168.57143,-237.14286)"
           style="fill:#cfc208;fill-rule:evenodd"
           class="cls-2"
           points="175.304,132.34 168.13,127.58 6.865,127.58 0.003,132.34 "
           id="polygon20" />
        <polygon
           transform="translate(168.57143,-237.14286)"
           style="fill:#008000;fill-rule:evenodd"
           class="cls-3"
           points="156.633,10.921 156.633,127.576 17.938,127.576 17.938,10.921 "
           id="polygon22" />
        <path
           style="fill:#ffffff;fill-rule:evenodd"
           inkscape:connector-curvature="0"
           class="cls-4"
           d="m 196.93443,-112.65086 h 25.19 a 0.925,0.925 0 0 1 0.923,0.922 v 3.846 a 0.926,0.926 0 0 1 -0.923,0.924 h -25.19 a 0.926,0.926 0 0 1 -0.922,-0.924 v -3.846 a 0.924,0.924 0 0 1 0.922,-0.922 z"
           id="path24" />
        <path
           style="fill:#ffffff;fill-rule:evenodd"
           inkscape:connector-curvature="0"
           class="cls-4"
           d="m 221.01243,-120.79086 11.814,9.033 a 0.924,0.924 0 0 1 0.173,1.293 l -2.337,3.055 a 0.924,0.924 0 0 1 -1.293,0.174 l -11.814,-9.033 a 0.925,0.925 0 0 1 -0.172,-1.293 l 2.336,-3.057 a 0.926,0.926 0 0 1 1.293,-0.172 z"
           id="path26" />
        <path
           style="fill:#ffffff"
           inkscape:connector-curvature="0"
           class="cls-5"
           d="m 273.85743,-176.59486 q 0.611,0.733 0.428,1.222 a 2.051,2.051 0 0 1 -0.794,0.916 q -0.611,0.428 -1.344,0.855 a 12.876,12.876 0 0 0 -1.221,0.794 q 0.855,1.71 1.893,3.42 a 7.923,7.923 0 0 0 2.626,2.688 1.393,1.393 0 0 0 0.733,1.281 3.007,3.007 0 0 1 1.1,1.039 6.055,6.055 0 0 1 1.221,2.076 7.331,7.331 0 0 0 0.978,1.955 q 0.855,1.219 1.588,2.258 0.733,1.039 1.588,2.26 0.855,0.978 1.649,2.078 0.794,1.1 1.527,1.953 0.855,1.222 1.588,2.139 a 11.989,11.989 0 0 1 1.344,2.137 24.343,24.343 0 0 1 1.587,2.443 q 0.855,0.976 1.955,2.076 a 20.334,20.334 0 0 1 2.076,2.443 3.348,3.348 0 0 1 0.794,-0.3 q 0.3,-0.061 0.55,-0.551 a 2.283,2.283 0 0 0 1.526,0.551 21.744,21.744 0 0 0 2.26,0 q 1.222,-0.061 2.321,-0.123 a 4.105,4.105 0 0 1 1.71,0.184 q 0.244,1.708 0.55,3.6 a 7.155,7.155 0 0 1 -0.305,3.6 c 0.244,0.164 0.346,0.326 0.305,0.49 a 0.509,0.509 0 0 0 0.183,0.488 4.319,4.319 0 0 0 -0.428,2.748 30.635,30.635 0 0 1 0.184,3.115 q -0.366,0.243 -0.794,0.549 a 1.743,1.743 0 0 1 -1.038,0.3 1.947,1.947 0 0 1 -0.855,-1.1 12.79,12.79 0 0 1 -3.3,0.061 8.273,8.273 0 0 0 -3.054,0.184 3.089,3.089 0 0 0 -1.588,0.916 1.2,1.2 0 0 1 -1.343,0.428 0.628,0.628 0 0 1 -0.245,-0.856 2.831,2.831 0 0 1 0.489,-0.732 4.951,4.951 0 0 1 -2.687,0.244 2.82,2.82 0 0 0 -2.443,0.609 20.478,20.478 0 0 0 -4.886,-0.853 40.307,40.307 0 0 0 -4.947,0.061 q -2.5,0.182 -5.008,0.428 a 32.249,32.249 0 0 1 -4.824,0.121 0.806,0.806 0 0 1 -0.489,-0.184 c -0.163,-0.121 -0.366,-0.264 -0.611,-0.426 h -1.588 a 4.353,4.353 0 0 1 -1.588,-0.244 h -2.259 a 11.489,11.489 0 0 0 -2.26,0.244 1.957,1.957 0 0 1 -0.061,-1.344 4.786,4.786 0 0 1 0.549,-1.588 3,3 0 0 1 -0.489,-1.406 10.238,10.238 0 0 1 -0.061,-1.953 c 0.04,-0.691 0.081,-1.426 0.122,-2.2 a 12.132,12.132 0 0 0 -0.061,-2.137 3.093,3.093 0 0 0 -0.427,-1.588 1.491,1.491 0 0 1 -0.184,-1.344 0.63,0.63 0 0 0 -0.671,-0.428 q -0.428,0.062 -0.428,-0.428 0.489,-1.345 1.4,-1.465 0.911,-0.12 2.138,-0.367 0.244,-0.366 -0.611,-1.1 a 5.836,5.836 0 0 1 -1.222,-1.344 7.007,7.007 0 0 0 -1.527,-3.664 q -1.282,-1.588 -2.5,-3.176 a 5.85,5.85 0 0 0 -0.855,-0.732 4.971,4.971 0 0 1 -0.733,-0.611 2.87,2.87 0 0 1 -0.61,-1.221 3.852,3.852 0 0 0 -0.489,-1.223 2.818,2.818 0 0 0 -0.977,-0.976 1.982,1.982 0 0 1 -0.855,-1.221 2.731,2.731 0 0 1 -1.222,0.244 1.42,1.42 0 0 1 -0.977,-0.244 4.3,4.3 0 0 1 0.491,-1.517 q 0.244,-0.3 -0.245,-0.551 a 6.947,6.947 0 0 1 -0.428,-0.732 q -0.183,-0.366 -0.793,-0.121 a 1.779,1.779 0 0 1 -0.123,-1.1 q 0.122,-0.489 -0.732,-0.732 -0.367,-0.246 -0.489,0 a 0.391,0.391 0 0 1 -0.366,0.244 29.376,29.376 0 0 0 -0.427,6.779 45.8,45.8 0 0 1 -0.062,6.289 7.363,7.363 0 0 1 -0.427,2.443 2.589,2.589 0 0 0 0.427,2.443 0.985,0.985 0 0 0 -0.488,0.732 2.3,2.3 0 0 0 0.122,0.732 4.86,4.86 0 0 1 0.184,0.734 0.841,0.841 0 0 1 -0.306,0.732 11.511,11.511 0 0 0 3.6,-0.061 4.29,4.29 0 0 1 2.993,0.549 14.381,14.381 0 0 1 0.366,3.236 29.772,29.772 0 0 1 -0.184,3.3 q -0.183,1.649 -0.366,3.42 a 21.281,21.281 0 0 0 -0.061,3.6 5.413,5.413 0 0 0 -0.977,0.488 2.182,2.182 0 0 0 -0.611,0.611 q -4.03,0 -7.633,0.121 a 61.494,61.494 0 0 1 -6.779,-0.121 13.135,13.135 0 0 0 -2.26,0.182 q -1.039,0.184 -2.26,0.428 -1.709,0 -3.6,-0.184 a 3.527,3.527 0 0 0 -3.115,1.162 2.8,2.8 0 0 0 -0.794,-0.367 4.971,4.971 0 0 0 -1.282,-0.123 0.749,0.749 0 0 1 0.122,-0.426 0.76,0.76 0 0 0 0.122,-0.428 2.609,2.609 0 0 0 -2.137,0.365 2.8,2.8 0 0 1 -2.382,0.244 c -0.408,0 -0.631,0.164 -0.672,0.49 -0.041,0.326 -0.265,0.488 -0.671,0.488 q -0.855,-0.246 -0.306,-0.611 c 0.367,-0.244 0.55,-0.447 0.55,-0.611 a 16.058,16.058 0 0 1 -3.97,0 15.294,15.294 0 0 0 -4.581,0.244 q 0,-1.585 0.122,-3.785 0.122,-2.2 0.306,-4.58 0.183,-2.382 0.366,-4.643 0.183,-2.261 0.305,-4.092 0.245,0.612 0.428,0.3 a 0.515,0.515 0 0 1 0.427,-0.3 15.958,15.958 0 0 1 4.825,0 11.152,11.152 0 0 0 4.7,-0.244 25.854,25.854 0 0 0 1.161,-5.5 41.039,41.039 0 0 0 0.183,-5.924 q -0.122,-2.994 -0.305,-5.986 -0.183,-2.992 -0.183,-5.8 a 14.384,14.384 0 0 0 -0.122,-1.895 14.213,14.213 0 0 1 -0.122,-1.893 83.071,83.071 0 0 1 -0.245,-12.7 51.351,51.351 0 0 0 -0.609,-11.846 2.53,2.53 0 0 0 -1.71,-0.489 4.457,4.457 0 0 0 -1.4,0.489 q -0.672,0.367 -1.221,0.733 a 2.26,2.26 0 0 1 -1.282,0.366 0.865,0.865 0 0 1 -0.611,-0.854 1.161,1.161 0 0 0 -0.489,-0.977 0.97,0.97 0 0 0 -0.794,0.244 0.969,0.969 0 0 1 -0.794,0.244 q -1.466,-1.1 -2.321,-0.732 -0.244,-4.031 -0.428,-8.061 -0.184,-4.03 -0.188,-8.063 0.245,0 0.244,-0.489 a 58.513,58.513 0 0 0 6.474,0.367 q 3.176,0 6.168,-0.061 2.992,-0.061 5.863,-0.122 a 35.49,35.49 0 0 1 5.559,0.305 q 0.611,0 0.672,-0.366 0.061,-0.366 0.672,-0.366 a 9.013,9.013 0 0 0 3.542,0.549 6.391,6.391 0 0 0 3.42,-1.039 q -0.245,0.612 0,0.733 a 1.39,1.39 0 0 1 0.488,0.489 20.829,20.829 0 0 1 6.779,0.366 15.844,15.844 0 0 0 6.779,0 2.645,2.645 0 0 0 0.672,0.672 1.051,1.051 0 0 1 0.428,0.916 3.6,3.6 0 0 0 -1.16,2.382 27.1,27.1 0 0 0 -0.184,3.237 1.868,1.868 0 0 0 0.611,1.344 3.78,3.78 0 0 1 -0.367,1.1 q -0.122,0.122 0.367,0.977 a 1.669,1.669 0 0 0 -0.611,1.038 v 1.4 a 2.7,2.7 0 0 0 -0.733,1.649 1.019,1.019 0 0 1 -1.1,1.038 c 0,0.163 0.122,0.224 0.366,0.183 0.244,-0.041 0.285,0.143 0.122,0.549 a 1.126,1.126 0 0 1 -1.283,-0.061 2.029,2.029 0 0 0 -1.283,-0.428 8.109,8.109 0 0 0 -2.565,0.367 6.584,6.584 0 0 1 -2.078,0.371 49.228,49.228 0 0 0 -0.183,7.451 q 0.183,4.03 0.183,8.306 a 130.74,130.74 0 0 0 10.933,-8.368 q 5.068,-4.336 10.2,-8.733 -0.611,-0.245 -1.16,-0.489 a 2.84,2.84 0 0 1 -1.039,-0.856 q -0.977,0 -2.2,0.123 a 2.928,2.928 0 0 1 -1.955,-0.367 7.261,7.261 0 0 0 -0.183,-3.664 4.9,4.9 0 0 1 -0.184,-2.932 q -0.244,-0.488 -0.427,0 -0.183,0.488 -0.55,0.244 0,-0.977 0.061,-1.71 a 1.054,1.054 0 0 1 0.672,-0.977 6.4,6.4 0 0 1 -0.061,-2.321 2.516,2.516 0 0 0 -0.428,-1.954 2.813,2.813 0 0 1 1.649,-0.671 11.887,11.887 0 0 1 1.71,0 q 0.794,0.061 1.588,0.061 a 2.186,2.186 0 0 0 1.4,-0.489 c 0,0.163 -0.041,0.265 -0.123,0.306 -0.082,0.041 -0.122,0.143 -0.122,0.3 a 3.715,3.715 0 0 0 1.893,0 3.737,3.737 0 0 1 1.893,0 q 0,-0.61 -0.611,-0.488 a 5.646,5.646 0 0 1 -1.1,0.122 2.012,2.012 0 0 1 1.649,-0.427 2.3,2.3 0 0 1 1.039,0.427 4.738,4.738 0 0 0 2.687,-0.732 0.973,0.973 0 0 1 0.794,0.244 2.218,2.218 0 0 0 0.549,0.489 q 3.054,0 6.474,-0.244 l 6.841,-0.488 q 3.42,-0.245 6.779,-0.367 a 52.729,52.729 0 0 1 6.29,0.122 1.683,1.683 0 0 1 0.916,0.916 2.138,2.138 0 0 0 0.672,0.916 15.444,15.444 0 0 0 0.122,4.336 10.477,10.477 0 0 1 -0.122,4.214 24.056,24.056 0 0 1 -0.733,3.787 7.2,7.2 0 0 0 -0.244,3.176 3.088,3.088 0 0 1 -2.26,0.428 q -1.405,-0.183 -2.87,-0.489 a 12.585,12.585 0 0 0 -2.5,-0.306 q -1.038,0 -1.16,0.855 -0.488,-0.243 -0.916,0.428 a 2.154,2.154 0 0 1 -1.283,0.916 2.066,2.066 0 0 1 -0.244,1.039 8.272,8.272 0 0 0 -0.489,1.039 5.265,5.265 0 0 0 -1.954,2.076 6.631,6.631 0 0 1 -1.832,2.2 q -0.855,0.61 -1.832,1.283 a 7.78,7.78 0 0 0 -1.588,1.4 7.481,7.481 0 0 0 -0.366,1.161 2.707,2.707 0 0 1 -0.489,1.038 8.719,8.719 0 0 1 -1.771,1.527 14.052,14.052 0 0 0 -2.016,1.648 19.161,19.161 0 0 1 -3.42,2.932 z m -9.893,-10.993 a 2.072,2.072 0 0 1 1.771,-1.588 2.812,2.812 0 0 0 2.016,-1.343 q 0.244,0 0.244,-0.122 0,-0.122 0.244,0.122 a 0.1225,0.1225 0 0 0 0.245,0 q -0.245,-0.245 0,-0.366 a 2.173,2.173 0 0 1 0.55,-0.184 1.9,1.9 0 0 0 0.427,-0.122 q 0.122,-0.061 -0.366,-0.305 a 1.948,1.948 0 0 0 1.771,-0.855 2.683,2.683 0 0 1 1.893,-1.1 2.569,2.569 0 0 1 1.038,-1.282 1.475,1.475 0 0 1 1.4,-0.306 10.722,10.722 0 0 0 1.588,-1.71 3.52,3.52 0 0 1 2.443,-1.222 0.4,0.4 0 0 1 -0.122,-0.488 0.39,0.39 0 0 1 0.366,-0.245 1.12,1.12 0 0 0 1.222,-0.305 q 0.61,-0.549 0.61,-0.794 a 5.429,5.429 0 0 0 1.71,-0.733 q 0.732,-0.489 0.732,-0.855 0.977,-0.61 2.138,-1.4 a 6.8,6.8 0 0 1 2.138,-1.038 0.947,0.947 0 0 1 0.61,-1.283 1.435,1.435 0 0 1 1.222,-0.061 15.924,15.924 0 0 1 3.848,-2.993 10.208,10.208 0 0 0 3.6,-3.359 4.68,4.68 0 0 0 -3.42,0.489 l -1.222,0.977 -1.221,0.977 a 3.718,3.718 0 0 1 -1.222,0.855 12.14,12.14 0 0 0 -1.465,0.733 q -4.642,3.176 -9.222,6.535 -4.58,3.359 -8.849,6.776 -2.444,1.71 -4.886,3.726 a 35.756,35.756 0 0 1 -5.008,3.481 25.576,25.576 0 0 1 -6.716,4.763 q 0,0.489 -0.244,0.489 a 23.5,23.5 0 0 0 -3.237,1.954 q -1.526,1.1 -3.115,2.077 a 6.178,6.178 0 0 0 -1.4,0.854 1.066,1.066 0 0 0 -0.183,1.588 2.675,2.675 0 0 0 0.611,-0.55 2.153,2.153 0 0 1 0.732,-0.549 4.27,4.27 0 0 1 0.55,-0.489 q 0.184,-0.122 0.795,-0.611 a 2.3,2.3 0 0 1 0.915,-0.549 3.025,3.025 0 0 1 0.917,-0.184 q -0.245,-0.488 0.061,-0.671 a 0.59,0.59 0 0 1 0.671,0.061 0.846,0.846 0 0 1 0.428,-0.672 6.816,6.816 0 0 1 0.916,-0.55 5.068,5.068 0 0 0 0.732,-0.427 q 0.245,-0.183 -0.122,-0.428 a 1.739,1.739 0 0 0 0.305,-0.367 c 0.041,-0.081 0.184,-0.122 0.428,-0.122 -0.163,0.163 -0.244,0.285 -0.244,0.367 q -0.245,0.367 0.244,0.366 a 1.959,1.959 0 0 1 0.672,-0.611 1.684,1.684 0 0 0 0.672,-0.732 5.77,5.77 0 0 1 0.915,-0.305 2.338,2.338 0 0 0 0.916,-0.672 c 0,0.163 -0.04,0.2 -0.122,0.122 -0.082,-0.078 -0.041,-0.122 0.122,-0.122 a 1.542,1.542 0 0 1 0.733,-0.366 2.745,2.745 0 0 0 0.977,-0.489 3.3,3.3 0 0 0 0.794,-0.855 3.373,3.373 0 0 1 1.038,-0.977 4.959,4.959 0 0 1 1.523,-0.61 q 0.672,-0.121 -0.184,-0.488 a 2.356,2.356 0 0 0 1.161,-0.306 q 0.549,-0.305 -0.427,-0.549 a 0.969,0.969 0 0 0 0.61,-0.122 q 0.122,-0.122 0.733,0.122 z m 12.581,-13.314 a 0.77,0.77 0 0 0 -0.794,0.427 q -0.183,0.428 -0.794,0.183 c 0,-0.163 -0.041,-0.265 -0.122,-0.305 -0.081,-0.04 -0.123,-0.143 -0.123,-0.305 q 0.367,-0.367 0.55,-0.367 a 2.269,2.269 0 0 0 0.794,-0.366 1.749,1.749 0 0 0 0.367,0.306 q 0.122,0.06 0.122,0.427 a 1.671,1.671 0 0 0 0.672,-0.367 q 0.061,-0.122 0.671,-0.122 a 1.519,1.519 0 0 1 0.489,-1.1 5.774,5.774 0 0 0 1.954,-1.1 q 0.855,-0.732 1.649,-1.4 a 12.96,12.96 0 0 1 1.71,-1.221 6.661,6.661 0 0 1 2.138,-0.794 1.064,1.064 0 0 0 0.305,-0.55 q 0.061,-0.305 0.306,-0.305 a 1.069,1.069 0 0 0 1.038,-0.611 1.291,1.291 0 0 1 1.283,-0.611 0.874,0.874 0 0 1 0.366,-0.672 5.538,5.538 0 0 1 0.794,-0.55 6.715,6.715 0 0 0 0.672,-0.427 0.446,0.446 0 0 0 0.122,-0.55 q -0.244,0.245 -0.855,0.062 a 1.172,1.172 0 0 0 -1.1,0.183 q 0.489,0.244 0.122,0.672 -0.367,0.428 -0.122,0.671 -5.5,2.687 -10.5,5.68 -5,2.993 -10.5,5.8 0.244,0.611 -0.244,0.733 -0.488,0.122 0,0.366 a 0.768,0.768 0 0 0 1.1,-0.244 1.505,1.505 0 0 1 1.222,-0.611 q -0.489,0.488 0,0.855 a 1.314,1.314 0 0 1 -0.733,0.245 1.971,1.971 0 0 0 -0.855,0.244 q 0.489,0.977 0.061,1.4 a 5.36,5.36 0 0 0 -0.793,1.038 7.964,7.964 0 0 0 2.321,-1.282 q 0.977,-0.795 1.954,-1.649 v -0.611 a 3.141,3.141 0 0 1 0.794,0.062 q 0.184,0.061 -0.061,-0.55 a 0.693,0.693 0 0 0 0.916,-0.183 4.824,4.824 0 0 1 0.916,-0.916 2.127,2.127 0 0 1 1.039,-0.367 q 0.428,0 -0.184,-0.366 a 1.5,1.5 0 0 1 0.855,-0.245 q 0.489,0 0.489,-0.61 z m 5.863,-9.527 v 0.977 q -2.2,1.222 -4.764,2.5 a 37.933,37.933 0 0 0 -4.52,2.626 q -2.077,1.344 -4.153,2.5 a 20.046,20.046 0 0 0 -3.909,2.87 q 1.343,0.366 1.77,-0.183 a 1.43,1.43 0 0 1 1.4,-0.428 q -0.122,-0.489 0.367,-0.488 h 0.489 q 0.366,-0.489 0.671,-0.916 0.305,-0.427 1.166,-0.172 a 3.407,3.407 0 0 1 1.772,-1.4 5.974,5.974 0 0 1 2.015,-0.427 0.474,0.474 0 0 0 0.123,-0.55 q -0.122,-0.305 0.122,-0.305 a 4.825,4.825 0 0 0 1.527,-0.733 15.71,15.71 0 0 0 1.282,-1.038 6.022,6.022 0 0 1 1.344,-0.916 5.252,5.252 0 0 1 1.709,-0.489 q 0,-0.855 0.489,-0.855 0.244,0.489 0.55,0 a 4.2,4.2 0 0 1 0.55,-0.733 5.218,5.218 0 0 0 1.343,-0.855 q 0.855,-0.367 1.71,-0.672 a 3.07,3.07 0 0 0 1.465,-1.161 21.8,21.8 0 0 0 -2.2,0.55 7.823,7.823 0 0 1 -2.321,0.306 z m -64.249,0 a 0.479,0.479 0 0 0 0.366,0.488 q 0.367,0.122 0.122,0.489 a 1.123,1.123 0 0 0 0.916,-0.366 2.254,2.254 0 0 1 0.916,-0.611 5.133,5.133 0 0 1 -1.222,-0.123 1.776,1.776 0 0 0 -1.1,0.123 z m 5.008,0.732 a 3.565,3.565 0 0 0 -1.527,0.733 17.115,17.115 0 0 1 -1.4,1.1 q -1.221,0.855 -2.382,1.832 -1.161,0.977 -2.387,1.955 a 3.819,3.819 0 0 1 -0.794,0.488 1.178,1.178 0 0 0 -0.55,0.611 4.255,4.255 0 0 0 -1.1,0.733 2.229,2.229 0 0 1 -0.977,0.733 0.865,0.865 0 0 0 -0.611,0.855 22.294,22.294 0 0 0 3.909,-2.932 9.935,9.935 0 0 1 3.786,-2.32 q 0,-0.855 0.611,-0.855 1.343,-0.977 2.626,-2.015 1.283,-1.038 2.626,-2.015 h -1.22 q -0.489,0 -0.855,0.854 0.366,0.244 0.55,-0.061 0.184,-0.305 0.183,0.061 c -0.163,0 -0.245,0.041 -0.245,0.123 0,0.082 -0.081,0.122 -0.244,0.122 z m 3.787,0.245 a 24.271,24.271 0 0 1 -2.443,1.588 30.536,30.536 0 0 0 -3.176,2.259 15.267,15.267 0 0 1 -3.176,2.016 q 0.366,0.855 1.038,0.122 0.672,-0.733 1.038,-1.1 a 1.4,1.4 0 0 0 0.794,-0.305 1.394,1.394 0 0 1 0.794,-0.306 1.706,1.706 0 0 0 0.305,-0.366 c 0.041,-0.081 0.143,-0.122 0.306,-0.122 a 22.175,22.175 0 0 1 2.443,-1.71 q 1.222,-0.733 2.565,-1.466 a 2.468,2.468 0 0 1 0.916,-0.916 4.1,4.1 0 0 0 0.916,-0.671 1.107,1.107 0 0 0 -1.16,0.183 11.708,11.708 0 0 1 -1.161,0.794 z m -17.59,-0.491 q 0.367,0.244 0.367,0 0,-0.244 0.366,-0.244 0.611,0 0.55,-0.123 a 0.44,0.44 0 0 0 -0.305,-0.183 2.581,2.581 0 0 0 -0.611,-0.061 0.324,0.324 0 0 0 -0.367,0.367 h 0.122 c -0.081,0 -0.122,0.081 -0.122,0.244 z m 23.941,-0.488 a 56.124,56.124 0 0 1 -5.13,3.42 q -2.686,1.588 -5.435,3.176 -2.749,1.588 -5.313,3.359 a 49.521,49.521 0 0 0 -4.886,3.848 5.117,5.117 0 0 0 3.115,-1.282 7.279,7.279 0 0 1 2.749,-1.649 q 0,-0.366 1.16,-1.1 a 2.523,2.523 0 0 1 2.013,-0.484 1.564,1.564 0 0 1 1.283,-1.4 2.484,2.484 0 0 0 1.649,-1.038 c 0.163,0 0.244,0.041 0.244,0.122 0,0.081 0.081,0.041 0.244,-0.122 a 0.494,0.494 0 0 0 -0.122,-0.366 q -0.122,-0.122 0.122,-0.122 2.81,-1.833 5.192,-3.237 2.382,-1.404 4.947,-3.114 z m -4.52,9.527 a 11.043,11.043 0 0 1 2.138,-1.466 9.71,9.71 0 0 1 2.138,-0.855 7.424,7.424 0 0 1 1.466,-1.527 5.05,5.05 0 0 1 2.321,-0.916 0.5,0.5 0 0 1 0.061,-0.55 0.927,0.927 0 0 1 0.488,-0.245 2.636,2.636 0 0 1 0.489,-0.061 h -0.061 a 0.1225,0.1225 0 0 1 0,-0.245 5.546,5.546 0 0 0 2.5,-1.344 8.7,8.7 0 0 1 2.382,-1.588 1.22,1.22 0 0 1 0.855,-0.183 q 0.488,0.061 0.733,-0.549 h -1.1 q -4.031,2.443 -7.878,5.008 -3.847,2.565 -7.878,4.764 a 11.618,11.618 0 0 1 -2.81,2.26 7.584,7.584 0 0 0 -2.558,2.385 6.664,6.664 0 0 0 2.626,-1.649 6.551,6.551 0 0 1 2.749,-1.649 0.984,0.984 0 0 1 0.488,-0.733 4.273,4.273 0 0 0 0.855,-0.855 z m -7.695,8.794 a 1.908,1.908 0 0 1 0,1.344 0.892,0.892 0 0 0 0.244,1.1 2.46,2.46 0 0 0 0.977,-0.672 q 0.366,-0.428 0.611,-0.672 0.611,-0.366 0.794,-0.183 0.183,0.183 0.794,-0.061 a 2.118,2.118 0 0 0 0.428,-0.672 0.669,0.669 0 0 1 0.671,-0.427 q 0,-0.245 0.122,0 0.122,0.245 0.122,0 0.245,0 0.245,-0.123 c 0,-0.081 0.081,-0.2 0.244,-0.366 a 4.917,4.917 0 0 0 1.954,-1.344 c 0,0.326 0.082,0.488 0.245,0.488 q 0.244,-0.366 -0.245,-0.427 -0.489,-0.061 0,-0.305 0.367,0.244 0.794,-0.183 a 1.413,1.413 0 0 1 1.038,-0.428 q -0.365,-0.367 0.245,-0.427 a 1.4,1.4 0 0 0 0.855,-0.306 q -0.244,-0.244 0,-0.305 c 0.163,-0.041 0.366,-0.081 0.611,-0.123 a 4.822,4.822 0 0 0 0.732,-0.18 0.735,0.735 0 0 0 0.489,-0.489 q -0.489,0 -0.489,-0.245 0.733,0.245 0.489,0 -0.244,-0.245 0,-0.244 0.611,0.245 0.916,-0.061 0.305,-0.306 -0.183,-0.55 0.244,-0.122 0.733,-0.305 0.489,-0.183 0.916,-0.366 a 1.263,1.263 0 0 0 0.55,-0.367 q 0.122,-0.183 -0.245,-0.305 a 1.5,1.5 0 0 1 1.1,0.366 1.961,1.961 0 0 1 0.977,-1.649 7.809,7.809 0 0 1 2.2,-1.038 q 0,-0.855 0.55,-0.916 a 2.1,2.1 0 0 0 1.038,-0.427 q -0.244,0 -0.122,-0.184 a 0.746,0.746 0 0 0 0.122,-0.427 7.936,7.936 0 0 0 2.138,-0.977 18.711,18.711 0 0 0 1.71,-1.283 q 0.794,-0.672 1.649,-1.344 a 7.933,7.933 0 0 1 2.2,-1.16 2.333,2.333 0 0 1 1.649,-1.1 q 1.161,-0.245 1.039,-0.977 a 155.21,155.21 0 0 1 -15.513,9.161 144.781,144.781 0 0 0 -15.39,9.161 z m 17.589,-8.184 q 0.366,-0.611 -0.122,-0.549 -0.488,0.062 0.122,0.549 z m 34.079,-6.474 q -1.221,0.855 -2.748,1.771 -1.527,0.916 -2.871,1.771 a 8.923,8.923 0 0 1 -1.893,1.16 6.314,6.314 0 0 0 -1.775,1.165 q -0.245,0.244 -0.855,0.977 -0.61,0.733 -0.245,0.981 0.367,0.245 0.488,0.122 a 0.494,0.494 0 0 0 0.123,-0.366 1.35,1.35 0 0 1 0.061,-0.428 c 0.041,-0.122 0.183,-0.183 0.428,-0.183 a 4.553,4.553 0 0 0 1.648,-1.038 7.19,7.19 0 0 1 1.527,-1.161 2.9,2.9 0 0 0 1.343,-0.488 q 0.488,-0.367 0.978,-0.794 a 7.637,7.637 0 0 1 0.977,-0.732 2.263,2.263 0 0 1 1.221,-0.306 2.868,2.868 0 0 1 1.527,-1.4 3.71,3.71 0 0 0 1.648,-1.282 c 0.163,0 0.265,0.041 0.306,0.122 0.041,0.081 0.142,0.122 0.305,0.122 a 6.148,6.148 0 0 1 2.382,-1.832 7.629,7.629 0 0 0 2.382,-1.588 7.333,7.333 0 0 0 -3.665,1.16 q -1.221,0.916 -3.3,2.26 z m 23.574,2.443 a 4.422,4.422 0 0 0 1.833,-1.587 4.407,4.407 0 0 1 1.832,-1.588 v -2.684 a 30.86,30.86 0 0 1 -3.42,2.5 42.757,42.757 0 0 0 -3.542,2.5 2.793,2.793 0 0 1 1.161,-0.61 3.813,3.813 0 0 1 1.465,-0.184 1.377,1.377 0 0 1 0.978,0.428 q 0.3,0.366 -0.306,1.221 z m -34.689,-4.03 a 3.715,3.715 0 0 1 0.977,-0.672 1.743,1.743 0 0 0 0.855,-1.16 2.322,2.322 0 0 1 -1.4,0.061 q -0.795,-0.183 -1.039,0.183 c 0.326,-0.081 0.509,-0.04 0.55,0.123 a 1.238,1.238 0 0 1 0,0.549 c -0.041,0.2 -0.081,0.407 -0.122,0.611 -0.041,0.204 0.02,0.306 0.184,0.306 z m 2.076,0.855 q -0.61,0.365 -1.343,0.794 a 1.017,1.017 0 0 0 -0.489,1.283 21.718,21.718 0 0 1 3.542,-2.2 11.784,11.784 0 0 0 3.42,-2.565 4.59,4.59 0 0 0 -3.115,0.916 q -1.038,0.916 -2.016,1.771 z m 9.406,-1.955 a 1.311,1.311 0 0 1 0.732,-0.245 1.968,1.968 0 0 0 0.855,-0.244 2.3,2.3 0 0 0 -1.343,-0.122 3.431,3.431 0 0 1 -1.588,-0.122 q -2.2,1.709 -4.825,3.359 -2.625,1.65 -5.069,3.237 0.366,0.245 0.184,0.855 a 1.452,1.452 0 0 0 0.061,1.1 12.127,12.127 0 0 0 2.382,-1.588 7.561,7.561 0 0 1 2.138,-1.344 2.184,2.184 0 0 1 0.61,-0.611 q 0.733,-0.489 0.977,-0.244 -0.244,-0.489 0.855,-0.488 a 1.428,1.428 0 0 1 1.16,-1.161 8.972,8.972 0 0 0 1.527,-0.427 q -0.366,-0.489 -0.062,-0.794 a 2.324,2.324 0 0 1 0.733,-0.488 q 0.427,-0.184 0.733,-0.306 0.306,-0.122 -0.061,-0.366 z m -63.516,0.366 q -0.244,0 -0.123,-0.183 0.121,-0.183 -0.122,-0.183 a 0.306,0.306 0 0 0 0,0.489 q 0.245,0.244 0.245,-0.123 z m 10.381,10.631 a 2.871,2.871 0 0 1 -0.977,0.611 1.542,1.542 0 0 0 -0.855,0.732 0.926,0.926 0 0 0 1.16,-0.061 q 0.428,-0.427 0.672,0.061 a 13.907,13.907 0 0 1 3.787,-3.054 19.944,19.944 0 0 0 3.909,-2.809 h 1.1 a 0.768,0.768 0 0 1 0.428,-0.793 1.5,1.5 0 0 0 0.672,-0.55 3.6,3.6 0 0 0 1.893,-0.916 12.042,12.042 0 0 1 1.527,-1.282 15.807,15.807 0 0 1 2.138,-1.344 8.853,8.853 0 0 0 2.138,-1.588 q -4.642,2.687 -9.1,5.5 -4.458,2.813 -8.489,5.5 z m 14.9,-3.787 a 0.933,0.933 0 0 0 -0.366,0.122 5.133,5.133 0 0 0 -0.733,0.489 1.5,1.5 0 0 0 -0.55,0.122 q -0.305,0.122 0.061,0.366 a 21.655,21.655 0 0 0 3.787,-2.259 20.037,20.037 0 0 1 3.909,-2.26 0.216,0.216 0 0 1 -0.245,-0.244 q 0.855,0 1.1,-0.489 0.245,-0.489 0.855,-0.122 a 2.486,2.486 0 0 1 1.771,-1.4 q 1.4,-0.428 1.4,-1.161 a 32.7,32.7 0 0 0 -5.8,3.3 q -2.744,1.948 -5.187,3.538 z m -23.449,-5.252 a 1.092,1.092 0 0 1 0.733,-0.611 1.814,1.814 0 0 0 0.855,-0.488 2.121,2.121 0 0 0 -1.222,0.427 q -0.611,0.428 -0.366,0.672 z m 29.925,6.6 a 0.515,0.515 0 0 1 -0.305,0.427 q -0.305,0.184 0.305,0.183 a 49.766,49.766 0 0 1 5.191,-3.48 47.2,47.2 0 0 0 5.436,-3.726 23.3,23.3 0 0 0 -5.436,3.3 25.477,25.477 0 0 1 -5.191,3.3 z m 42.873,3.786 q -0.732,-0.489 -0.061,-0.549 a 1.5,1.5 0 0 0 0.916,-0.306 0.588,0.588 0 0 0 0.55,-0.366 1.449,1.449 0 0 0 0.183,-0.611 2.457,2.457 0 0 1 1.221,-0.733 6.956,6.956 0 0 0 1.223,-0.367 5.736,5.736 0 0 1 2.443,-2.565 5.323,5.323 0 0 0 2.321,-2.321 35.316,35.316 0 0 0 -3.726,2.748 16.624,16.624 0 0 1 -3.725,2.382 0.409,0.409 0 0 0 -0.55,-0.061 q -0.305,0.183 -0.55,-0.183 -15.635,10.746 -31.025,21.433 -15.39,10.687 -31.88,20.7 v 2.076 a 4.765,4.765 0 0 0 1.466,-0.426 7.026,7.026 0 0 0 1.16,-0.734 8.532,8.532 0 0 1 1.1,-0.732 4.107,4.107 0 0 1 1.4,-0.428 3.1,3.1 0 0 1 1.958,-1.889 17.687,17.687 0 0 0 2.565,-1.039 13.566,13.566 0 0 0 3.115,-2.137 6.781,6.781 0 0 1 3.481,-1.648 12.528,12.528 0 0 1 0.916,-1.039 5.345,5.345 0 0 1 1.038,-0.793 h 0.733 a 9.859,9.859 0 0 1 0.916,-1.04 2.063,2.063 0 0 1 1.526,-0.549 0.72,0.72 0 0 1 0.366,-0.611 c 0.245,-0.163 0.468,-0.325 0.672,-0.488 a 6.072,6.072 0 0 0 0.488,-0.428 q 0.184,-0.183 -0.183,-0.427 a 4.052,4.052 0 0 0 1.893,-0.672 14.266,14.266 0 0 0 1.527,-1.221 q 0.733,-0.672 1.527,-1.344 a 5.681,5.681 0 0 1 1.893,-1.038 q 0.245,-0.366 -0.122,-0.244 -0.367,0.122 -0.367,-0.244 h 1.344 q 0.245,-0.245 0,-0.244 a 0.216,0.216 0 0 1 -0.245,-0.245 h 1.1 q 0.244,-0.977 0.611,-0.977 a 3.7,3.7 0 0 0 1.221,-0.367 h -0.122 c -0.081,0 -0.122,-0.081 -0.122,-0.244 a 0.83,0.83 0 0 0 0.611,-0.244 q 0.245,-0.245 -0.122,-0.611 a 1.058,1.058 0 0 0 0.916,0.061 l 0.916,-0.55 c -0.163,0 -0.2,-0.061 -0.122,-0.183 a 2.93,2.93 0 0 1 0.366,-0.428 h 1.1 a 2.218,2.218 0 0 0 0.733,-0.977 q 0.245,-0.611 0.611,0 -0.122,-0.366 0.122,-0.489 a 2.177,2.177 0 0 1 0.55,-0.183 1.9,1.9 0 0 0 0.428,-0.122 q 0.122,-0.061 -0.245,-0.305 a 2.76,2.76 0 0 0 1.222,-0.489 8.518,8.518 0 0 0 0.916,-0.794 8.481,8.481 0 0 1 0.916,-0.794 2.431,2.431 0 0 1 1.466,-0.366 8.843,8.843 0 0 1 2.565,-2.321 q 1.588,-0.978 3.3,-1.955 l -0.123,0.245 h -0.122 a 3.539,3.539 0 0 0 1.1,-1.1 0.99,0.99 0 0 1 1.221,-0.489 q 0.245,-0.732 0.672,-0.732 a 5.172,5.172 0 0 0 1.282,-0.245 q 0.733,-0.855 1.71,-2.015 a 2.205,2.205 0 0 1 2.2,-0.916 q 0,-0.977 0.549,-1.039 a 10.573,10.573 0 0 1 1.16,-0.061 0.473,0.473 0 0 0 -0.549,-0.122 q -0.3,0.122 -0.305,-0.122 a 1.655,1.655 0 0 0 1.16,-0.305 q 0.306,-0.306 0.672,0.305 -0.366,-0.977 0.305,-0.916 0.671,0.061 0.55,-0.672 c 0.162,0 0.264,0.041 0.3,0.122 0.036,0.081 0.184,0.04 0.428,-0.122 a 0.654,0.654 0 0 1 0.489,-0.732 2.714,2.714 0 0 0 0.855,-0.367 z m -25.284,17.585 h 0.489 v -0.488 h -0.489 z m 34.445,-20.276 a 4.772,4.772 0 0 0 2.138,-1.341 2.1,2.1 0 0 1 2.382,-0.488 8.259,8.259 0 0 1 1.833,-1.588 1.049,1.049 0 0 1 -0.062,-0.924 q 0.183,-0.427 -0.183,-0.427 a 21.769,21.769 0 0 1 -3.115,2.382 17.117,17.117 0 0 0 -2.993,2.382 z m -51.79,2.687 a 32.047,32.047 0 0 1 5.13,-2.931 21.329,21.329 0 0 0 4.764,-2.932 c -0.163,0 -0.224,-0.061 -0.183,-0.184 a 4.229,4.229 0 0 0 0.122,-0.488 0.972,0.972 0 0 0 0,-0.489 c -0.041,-0.122 -0.224,-0.183 -0.549,-0.183 q -5.623,4.032 -11.666,7.513 a 91.762,91.762 0 0 0 -11.543,7.878 q 2.2,-0.367 2.687,-1.588 a 0.97,0.97 0 0 0 0.794,-0.244 0.97,0.97 0 0 1 0.794,-0.245 2.793,2.793 0 0 1 2.015,-1.527 6.088,6.088 0 0 0 2.26,-0.916 1.528,1.528 0 0 0 0.366,-0.611 q 0.122,-0.366 0.733,-0.122 a 4.243,4.243 0 0 0 0.733,-1.1 q 0.977,0.244 1.283,-0.488 0.306,-0.732 1.16,-0.244 a 2.4,2.4 0 0 1 1.1,-1.1 z m 50.08,-3.786 a 3.964,3.964 0 0 0 2.5,-1.466 5.254,5.254 0 0 1 2.137,-1.71 3.247,3.247 0 0 0 -2.443,1.4 4.6,4.6 0 0 1 -2.2,1.771 z m -76.219,0 q 0.855,-0.245 0.549,-0.55 -0.306,-0.305 -0.549,0.55 z m 75.975,0.244 q -0.367,0.245 -0.367,0.366 c 0,0.081 0.061,0.122 0.183,0.122 a 0.414,0.414 0 0 0 0.306,-0.122 q 0.122,-0.122 -0.122,-0.366 z m 3.786,2.931 a 2.758,2.758 0 0 1 1.955,0.184 4.155,4.155 0 0 0 2.076,0.427 3.534,3.534 0 0 1 -0.061,-1.71 1.782,1.782 0 0 0 -0.306,-1.466 7.324,7.324 0 0 1 -1.771,1.283 10.354,10.354 0 0 0 -1.894,1.282 z m -85.624,-1.587 a 0.643,0.643 0 0 0 0.55,-0.245 0.527,0.527 0 0 1 0.427,-0.244 0.984,0.984 0 0 0 -0.977,0.489 z m 82.693,0 a 1.187,1.187 0 0 0 0.611,-0.245 q 0.366,-0.245 -0.123,-0.244 c 0,0.163 -0.081,0.224 -0.244,0.183 -0.163,-0.041 -0.244,0.061 -0.244,0.306 z m -2.93,0.37 a 1.619,1.619 0 0 0 0.733,-0.306 q 0.488,-0.3 0,-0.549 a 0.324,0.324 0 0 1 -0.366,0.366 q -0.367,0 -0.367,0.489 z m -50.69,0 c -0.244,0.163 -0.367,0.265 -0.367,0.306 0,0.041 0.061,0.06 0.184,0.06 a 0.685,0.685 0 0 0 0.305,-0.06 c 0.081,-0.041 0.041,-0.143 -0.122,-0.306 z m 0.488,0.244 h 0.611 v -0.244 h -0.609 v 0.244 z m 9.893,1.344 a 4.931,4.931 0 0 1 2.443,-0.367 q 0.244,0.489 -0.122,0.672 c -0.245,0.122 -0.2,0.183 0.122,0.183 q 0.611,-0.245 0.244,-0.856 a 8.562,8.562 0 0 1 -0.611,-1.221 1.952,1.952 0 0 1 -1.038,0.855 2.2,2.2 0 0 0 -1.039,0.733 z m -4.276,29.067 v 1.345 q 0.367,0.243 0.306,-0.123 a 1,1 0 0 1 0.183,-0.733 0.41,0.41 0 0 0 0.184,0.366 q 0.183,0.122 0.427,-0.122 a 0.352,0.352 0 0 1 0.122,-0.244 0.938,0.938 0 0 0 0.183,-0.245 0.963,0.963 0 0 1 0.184,-0.244 2.34,2.34 0 0 1 1.038,-0.549 1.9,1.9 0 0 0 0.793,-0.306 2.852,2.852 0 0 1 1.588,-1.4 q 1.1,-0.427 1.1,-1.282 a 1.09,1.09 0 0 0 0.915,-0.122 6.558,6.558 0 0 0 0.55,-0.489 6.788,6.788 0 0 0 0.489,-0.55 1.3,1.3 0 0 1 0.733,-0.427 q 0.366,0.244 0.611,0 l 0.488,-0.489 q -0.244,-0.367 0,-0.611 a 1.526,1.526 0 0 1 0.672,-0.366 6.434,6.434 0 0 1 0.855,-0.184 1.051,1.051 0 0 0 0.549,-0.183 q -0.122,-0.122 0.306,-0.428 a 6.817,6.817 0 0 1 0.915,-0.55 1.9,1.9 0 0 0 0.672,-0.488 q 0.182,-0.245 -0.306,-0.367 a 1.322,1.322 0 0 0 1.1,-0.244 q 0.488,-0.367 0.977,-0.794 0.489,-0.427 0.916,-0.733 a 1.282,1.282 0 0 1 1.038,-0.184 q 0.489,-0.61 0.855,-1.1 a 2.23,2.23 0 0 1 0.977,-0.733 c 0.163,0 0.265,0.041 0.306,0.123 0.041,0.082 0.143,0.041 0.305,-0.123 a 3.412,3.412 0 0 1 1.954,-1.4 4.6,4.6 0 0 0 2.321,-1.771 1.627,1.627 0 0 0 0.977,-0.366 q 0.489,-0.367 1.038,-0.794 0.549,-0.427 1.038,-0.793 a 1.127,1.127 0 0 1 0.977,-0.245 q 0.732,-0.732 1.71,-1.649 a 2.07,2.07 0 0 1 1.954,-0.672 q 0.367,-0.489 0.122,-0.672 -0.245,-0.183 0.367,-0.183 a 3.263,3.263 0 0 0 1.954,-1.283 2.737,2.737 0 0 1 1.832,-1.16 q 0,-0.367 0.855,-0.916 0.855,-0.549 1.343,-0.305 -0.244,0 0,-0.306 a 0.921,0.921 0 0 0 0.245,-0.55 3.715,3.715 0 0 0 1.955,-0.977 4.553,4.553 0 0 1 1.954,-1.1 0.805,0.805 0 0 1 0,-0.855 4.816,4.816 0 0 1 0.611,-0.733 l 0.672,-0.672 a 0.481,0.481 0 0 0 0.061,-0.672 q -10.869,8.056 -21.986,15.384 -11.117,7.328 -21.985,15.269 z m -9.039,-28.094 q -0.245,-0.367 0.489,-0.428 0.734,-0.061 0.244,-0.306 a 0.613,0.613 0 0 0 -0.794,0.122 q -0.427,0.368 0.061,0.611 z m -1.954,1.339 a 2.829,2.829 0 0 1 0.733,-0.489 q 0.489,-0.244 0.122,-0.488 0,0.366 -0.733,0.488 -0.733,0.122 -0.122,0.489 z m -1.222,0.86 q 0.611,0.245 0.733,-0.489 0.122,-0.734 -0.244,-0.366 h 0.122 a 0.354,0.354 0 0 1 -0.122,0.245 q -0.489,0 -0.489,0.61 z m 8.184,0 q 0,-0.244 0.428,-0.427 0.428,-0.183 -0.183,-0.428 a 0.515,0.515 0 0 1 -0.306,0.428 q -0.3,0.183 0.061,0.427 z m 38.716,5.252 a 6.3,6.3 0 0 1 -1.466,0.855 2.935,2.935 0 0 0 -1.222,0.855 c 0,0.163 -0.041,0.244 -0.122,0.244 -0.081,0 -0.122,0.082 -0.122,0.245 q -4.274,2.81 -8.245,5.436 -3.971,2.626 -7.756,5.191 a 4.208,4.208 0 0 1 -1.1,0.672 1.34,1.34 0 0 0 -0.733,0.916 q 1.588,-0.366 1.588,-0.977 a 1.755,1.755 0 0 0 1.527,-0.794 5.752,5.752 0 0 1 1.4,-1.4 6.083,6.083 0 0 1 1.465,-0.611 4.126,4.126 0 0 0 1.466,-0.733 q 0.245,-0.244 0.245,-0.366 0,-0.122 0.245,-0.366 a 12.079,12.079 0 0 1 1.893,-1.1 2.366,2.366 0 0 0 1.283,-1.1 19.871,19.871 0 0 0 4.458,-2.687 13.332,13.332 0 0 1 4.336,-2.321 q 0,-0.977 0.855,-0.61 a 1.415,1.415 0 0 1 0.245,-0.978 q 0.61,0 0.793,-0.305 0.183,-0.305 0.794,-0.061 0,-0.489 0.245,-0.489 0.855,-0.611 2.015,-1.343 a 10.448,10.448 0 0 0 1.771,-1.344 q 0.977,-0.611 1.832,-1.161 a 1.723,1.723 0 0 0 0.855,-1.526 44.041,44.041 0 0 1 -4.275,3.114 q -2.2,1.405 -4.275,2.748 z m -40.3,-4.52 q 0.245,0.489 0.733,0 0.488,-0.489 0.123,-0.733 0,0.366 -0.428,0.367 c -0.285,0 -0.427,0.122 -0.427,0.366 z m 27.727,-0.245 q 1.1,0 1.1,-0.488 a 0.565,0.565 0 0 1 -0.672,0.061 q -0.427,-0.183 -0.427,0.427 z m -45.564,12.826 v 1.832 a 9.669,9.669 0 0 1 2.809,-1.954 9.676,9.676 0 0 0 2.81,-1.955 v 0.489 a 1.408,1.408 0 0 0 0.977,-0.489 q -0.489,0 -0.488,-0.366 0.61,0.245 0.794,-0.183 0.184,-0.428 0.794,-0.061 0.244,-0.244 0.061,-0.367 -0.183,-0.123 0.18,-0.119 a 1.086,1.086 0 0 0 1.343,-0.671 1.088,1.088 0 0 1 1.344,-0.672 1.544,1.544 0 0 1 1.038,-1.221 16.654,16.654 0 0 0 1.649,-0.611 q -0.488,0 -0.489,-0.366 0.733,0.244 0.978,-0.245 0.245,-0.489 0.855,0 0,-0.611 0.305,-0.733 a 1.627,1.627 0 0 0 0.55,-0.366 h 0.733 q 0,-0.611 0.427,-0.611 0.427,0 0.672,-0.611 a 10.208,10.208 0 0 0 2.138,-1.4 q 0.916,-0.794 1.893,-1.526 0,-0.611 -0.367,-0.611 a 122.247,122.247 0 0 1 -10.5,6.413 122.452,122.452 0 0 0 -10.5,6.413 z m 43.973,-11.481 q 0,-0.245 0.549,-0.184 0.549,0.061 0.55,-0.305 h -0.122 q -0.122,0 -0.123,-0.244 0.367,0.244 0.428,-0.062 0.061,-0.306 -0.183,-0.305 a 2.627,2.627 0 0 1 -0.855,0.489 q -0.611,0.244 -0.244,0.611 z m -27.483,0 q 0.977,-0.367 0.794,-0.672 -0.183,-0.305 -0.794,0.672 z m 39.453,0 q 0.855,-0.245 0.672,-0.55 -0.183,-0.305 -0.672,0.55 z m -48.981,0.489 q -0.244,-0.245 -0.915,0.3 -0.671,0.545 -0.428,0.794 a 4,4 0 0 1 1.4,-0.916 2.961,2.961 0 0 0 1.282,-0.916 q -0.61,-0.244 -0.794,0.122 a 1.578,1.578 0 0 1 -0.55,0.611 z m 7.94,0.366 q 0.61,0 0.794,-0.306 0.184,-0.306 0.794,-0.305 v -0.244 c -0.163,0 -0.244,-0.041 -0.244,-0.123 0,-0.082 -0.082,-0.122 -0.245,-0.122 a 0.5,0.5 0 0 1 -0.427,0.489 1.091,1.091 0 0 0 -0.672,0.611 z m -0.489,0.977 q -0.245,-0.366 0.122,-0.366 a 0.324,0.324 0 0 0 0.367,-0.367 1.437,1.437 0 0 1 -0.367,-0.244 q -0.366,-0.122 -0.366,0.244 0.244,0 0.244,0.489 -0.245,0 0,0.244 z m -14.657,2.687 q 0,0.977 0.061,1.771 a 3.168,3.168 0 0 0 0.428,1.4 4.892,4.892 0 0 0 1.038,-0.55 6.239,6.239 0 0 0 0.794,-0.671 0.654,0.654 0 0 0 -0.488,-0.733 q -0.489,-0.123 -0.245,-0.977 a 1.987,1.987 0 0 1 0.855,-0.978 l 1.222,-0.732 a 12.894,12.894 0 0 0 1.1,-0.733 1.163,1.163 0 0 0 0.489,-0.977 26.871,26.871 0 0 1 -2.565,1.588 q -1.344,0.733 -2.687,1.588 z m 12.7,-2.076 q 0,-0.245 0.366,-0.428 a 1.629,1.629 0 0 1 0.733,-0.183 q 0.122,-0.366 -0.183,-0.428 a 0.661,0.661 0 0 0 -0.55,0.122 2.112,2.112 0 0 0 -0.428,0.427 0.339,0.339 0 0 0 0.062,0.489 z m 28.582,0 a 1.283,1.283 0 0 0 0.916,-0.428 q 0.428,-0.428 0.184,-0.672 a 2.685,2.685 0 0 1 -0.55,0.611 6.454,6.454 0 0 0 -0.55,0.489 z m -29.556,6.107 q 0.366,0.245 0.488,0 0.122,-0.245 0.489,0 a 14.923,14.923 0 0 1 4.519,-3.237 12.026,12.026 0 0 0 4.4,-3.481 q -5.255,3.176 -10.568,6.413 -5.313,3.237 -10.566,6.656 a 2.638,2.638 0 0 1 -0.122,0.672 q -0.122,0.428 0.122,0.428 a 11.048,11.048 0 0 1 2.138,-1.466 q 1.16,-0.611 2.137,-1.222 a 2,2 0 0 0 0.916,-0.671 2.612,2.612 0 0 1 0.672,-0.672 l 0.122,0.122 a 0.353,0.353 0 0 0 0.123,0.244 1.177,1.177 0 0 0 0.61,-0.549 1.236,1.236 0 0 1 0.489,-0.55 1.339,1.339 0 0 1 0.977,-0.55 q 0.611,-0.061 0.611,-0.305 c 0.244,-0.245 0.367,-0.305 0.367,-0.184 0,0.121 0.163,0.184 0.488,0.184 q 0,-0.978 0.366,-0.611 0.366,0.367 0.367,-0.367 h -0.245 q 0.611,-0.245 0.855,-0.366 a 0.493,0.493 0 0 0 0.245,-0.489 z m -0.245,-5.619 q 0,-0.366 0.428,-0.122 0.428,0.244 0.061,-0.366 a 1.184,1.184 0 0 0 -0.611,0.244 q -0.367,0.244 0.122,0.244 z m 28.46,0.489 a 1.17,1.17 0 0 0 0.855,-0.366 q 0.366,-0.367 0,-0.367 a 0.376,0.376 0 0 1 -0.305,0.427 1.067,1.067 0 0 0 -0.55,0.306 z m -30.9,0.855 a 1.622,1.622 0 0 0 0.794,-0.244 2.06,2.06 0 0 1 1.038,-0.245 c -0.326,0 -0.468,-0.04 -0.428,-0.122 a 0.694,0.694 0 0 1 0.244,-0.244 l 0.366,-0.245 c 0.123,-0.082 0.061,-0.163 -0.183,-0.244 q -0.611,0.366 -1.038,0.672 a 6.335,6.335 0 0 0 -0.794,0.672 z m 34.69,11.481 q 0.244,0 0.794,-0.061 0.55,-0.061 0.306,0.306 -0.611,0.489 -0.733,0.122 -0.122,-0.367 -0.977,-0.122 -4.153,2.809 -8.306,5.68 -4.153,2.871 -8.188,6.047 0.367,0 0.306,0.3 -0.061,0.3 0.183,0.3 a 16.763,16.763 0 0 0 1.588,-1.281 3.962,3.962 0 0 1 1.954,-0.916 0.656,0.656 0 0 1 0.184,-0.732 2.417,2.417 0 0 1 0.611,-0.368 3.49,3.49 0 0 1 0.61,-0.183 q 0.305,-0.061 0.184,-0.305 l -0.122,0.122 a 0.108,0.108 0 0 1 -0.122,-0.122 35.289,35.289 0 0 0 5.985,-3.787 18.5,18.5 0 0 1 5.985,-3.176 c -0.082,0.081 -0.123,0.081 -0.123,0 q -0.122,0 -0.122,-0.488 a 3.393,3.393 0 0 0 1.527,-0.55 2.784,2.784 0 0 1 1.161,-0.549 q -0.489,-0.367 0.122,-0.672 a 1.431,1.431 0 0 1 1.221,-0.061 0.474,0.474 0 0 0 0.123,-0.55 q -0.123,-0.3 0.122,-0.305 a 9.185,9.185 0 0 0 1.588,-0.611 q 0.732,-0.366 1.343,-0.732 a 0.108,0.108 0 0 1 -0.122,-0.123 0.5,0.5 0 0 1 -0.122,-0.366 46.364,46.364 0 0 0 5.619,-2.932 10.559,10.559 0 0 0 4.153,-4.519 1.62,1.62 0 0 0 0.733,-0.306 q 0.489,-0.3 0.123,-0.549 -4.275,3.053 -9.039,5.863 a 97.564,97.564 0 0 0 -8.55,5.619 z m -37.379,-9.893 q 0.61,-0.245 1.16,-0.428 a 2.672,2.672 0 0 0 1.038,-0.671 2.357,2.357 0 0 0 -1.221,0.366 5.06,5.06 0 0 0 -0.977,0.733 z m 0.854,7.7 q -1.221,0.855 -2.5,1.71 a 10.684,10.684 0 0 0 -2.138,1.832 q 1.71,-0.978 2.931,-1.527 1.221,-0.549 3.054,-1.4 a 0.282,0.282 0 0 0 -0.183,-0.305 0.282,0.282 0 0 1 -0.183,-0.305 48.939,48.939 0 0 0 6.657,-3.726 q 2.993,-2.015 6.413,-4.214 a 1.745,1.745 0 0 1 0.306,0.366 c 0.041,0.081 0.143,0.122 0.305,0.122 a 1.88,1.88 0 0 1 -0.305,-0.733 1.093,1.093 0 0 0 -0.306,-0.61 q -3.424,2.435 -7.027,4.51 -3.603,2.075 -7.024,4.275 z m 31.147,-8.794 a 0.7,0.7 0 0 0 -0.489,0.244 0.352,0.352 0 0 1 -0.244,0.122 q 0,0.244 0.367,0.061 0.367,-0.183 0.366,-0.427 z m -36.033,3.781 a 5.339,5.339 0 0 1 0.916,-0.366 q 0.427,-0.122 0.427,-0.733 a 4.032,4.032 0 0 0 -0.611,0.489 7.142,7.142 0 0 1 -0.733,0.61 z m -1.832,12.215 v 1.71 a 1.857,1.857 0 0 0 0.977,-0.488 l 0.733,-0.733 a 3.253,3.253 0 0 1 0.855,-0.611 1.971,1.971 0 0 1 1.222,-0.122 0.8,0.8 0 0 1 0.366,-0.794 0.484,0.484 0 0 1 0.611,0.061 q 0.489,-0.245 0.244,-0.428 -0.245,-0.183 0.367,-0.427 0.244,-0.366 0.489,0.061 0.245,0.427 0.488,-0.061 -0.244,-0.245 0.428,-0.428 a 1.349,1.349 0 0 0 0.916,-0.672 2.689,2.689 0 0 0 0.916,-0.427 q 0.428,-0.306 0.855,-0.672 a 4.5,4.5 0 0 1 0.916,-0.611 1.667,1.667 0 0 1 1.1,-0.122 4.6,4.6 0 0 1 1.71,-1.588 20.338,20.338 0 0 1 2.321,-1.1 9.074,9.074 0 0 1 2.993,-1.954 10.623,10.623 0 0 0 3.113,-1.951 0.7,0.7 0 0 1 -0.122,-0.855 0.7,0.7 0 0 0 -0.123,-0.855 81.994,81.994 0 0 1 -10.682,6.47 74.787,74.787 0 0 0 -10.688,6.6 z m 44.583,-12.7 q -0.489,0.611 0.062,0.488 0.551,-0.123 -0.062,-0.488 z m -44.583,2.317 q 0,-0.367 0.244,-0.367 0.244,0 0,-0.611 -0.244,0 -0.244,-0.122 c 0,-0.081 -0.081,-0.041 -0.244,0.122 a 3.849,3.849 0 0 1 -0.061,0.611 q -0.061,0.366 0.305,0.367 z m 3.787,12.092 a 2.717,2.717 0 0 1 -1.4,1.649 2.846,2.846 0 0 1 -2.138,0.427 1.127,1.127 0 0 1 0.062,0.977 c -0.123,0.406 -0.062,0.611 0.183,0.611 a 4.88,4.88 0 0 0 1.526,-0.732 9.9,9.9 0 0 1 1.4,-0.856 q 0.978,-0.611 1.833,-1.222 a 1.549,1.549 0 0 1 1.465,-0.366 0.706,0.706 0 0 1 0.123,-0.489 l 0.366,-0.366 a 2.952,2.952 0 0 0 1.71,-0.427 12.86,12.86 0 0 0 1.16,-0.916 q 0.549,-0.488 1.038,-0.855 a 1.714,1.714 0 0 1 1.466,-0.122 q -0.244,-0.611 0.061,-0.855 0.305,-0.244 0.672,-0.489 0.245,0.245 0.305,0.122 0.06,-0.123 0.55,-0.122 a 2.4,2.4 0 0 1 1.1,-1.1 2.935,2.935 0 0 0 1.832,-1.035 2.931,2.931 0 0 1 1.832,-1.04 1.984,1.984 0 0 1 0.977,-0.855 l 1.222,-0.489 a 3.133,3.133 0 0 0 0.306,-1.1 0.841,0.841 0 0 0 -0.306,-0.854 q -4.275,2.687 -8.733,5.191 -4.458,2.504 -8.611,5.313 z m 28.7,6.841 a 13.5,13.5 0 0 0 1.527,-1.527 2.491,2.491 0 0 1 2.015,-0.793 6.252,6.252 0 0 1 1.466,-1.467 l 1.71,-1.222 a 0.122,0.122 0 1 0 0.244,0 q -0.366,-0.244 0.183,-0.55 0.549,-0.306 0.921,-0.548 l 0.245,0.244 a 2.708,2.708 0 0 0 1.1,-0.855 4.126,4.126 0 0 1 1.1,-0.977 7.183,7.183 0 0 1 1.344,-0.916 q 0.61,-0.305 1.221,-0.672 a 2.9,2.9 0 0 1 0.183,-0.794 q 0.183,-0.55 -0.671,-0.794 a 7.486,7.486 0 0 0 1.343,-0.733 0.961,0.961 0 0 1 1.344,0.122 6.014,6.014 0 0 1 0.916,-1.343 q 0.55,-0.611 1.161,-1.222 a 3.128,3.128 0 0 0 -2.321,1.588 13.758,13.758 0 0 0 -3.3,1.588 q -1.466,0.977 -2.809,1.832 -1.588,0.977 -3.542,2.2 -1.954,1.223 -3.788,2.442 -1.832,1.221 -3.48,2.5 a 15.71,15.71 0 0 0 -2.626,2.5 2.849,2.849 0 0 1 0.733,0.49 4.1,4.1 0 0 0 0.611,0.488 12.655,12.655 0 0 0 1.4,-0.978 4.085,4.085 0 0 1 1.771,-0.609 z m -32,-0.978 a 4.675,4.675 0 0 1 -0.061,2.26 3.1,3.1 0 0 0 0.067,2.011 1.424,1.424 0 0 1 0.61,-0.672 6.44,6.44 0 0 0 0.733,-0.428 7.849,7.849 0 0 0 3.234,-1.7 6.154,6.154 0 0 1 3.237,-1.467 1.068,1.068 0 0 1 0.549,-1.1 1.5,1.5 0 0 0 0.794,-0.855 q 0.611,0.243 0.733,0 0.122,-0.243 0.61,0 a 0.991,0.991 0 0 1 0.245,-0.732 q 0.732,0 0.916,-0.429 a 1.349,1.349 0 0 1 0.672,-0.671 h 1.1 a 1.93,1.93 0 0 0 0.489,-0.733 1.175,1.175 0 0 1 0.487,-0.613 l 0.367,0.489 a 0.509,0.509 0 0 0 0.183,-0.489 q -0.061,-0.245 0.305,-0.489 a 1.745,1.745 0 0 0 0.733,-0.428 2.965,2.965 0 0 1 0.367,-0.427 q 0.732,-0.366 1.527,-0.732 a 1.883,1.883 0 0 0 1.038,-1.344 q 0.855,0.244 0.977,-0.122 0.122,-0.366 0.733,-0.122 -0.489,-0.612 0,-0.733 0.489,-0.121 0.488,-0.977 a 3,3 0 0 1 -0.855,0.55 2.214,2.214 0 0 1 -0.977,-0.184 q -1.832,1.222 -3.909,2.5 -2.077,1.278 -4.153,2.508 -0.855,0.611 -1.832,1.283 -0.977,0.672 -1.588,0.061 a 2.032,2.032 0 0 1 1.16,-1.161 2.221,2.221 0 0 0 1.16,-0.916 q -5.007,2.687 -10.133,5.862 z m 32.857,-8.061 q 0.366,0.245 0.488,0.061 l 0.244,-0.366 a 1.084,1.084 0 0 1 0.306,-0.305 q 0.182,-0.123 0.549,0.122 a 0.529,0.529 0 0 1 0.245,-0.428 0.527,0.527 0 0 0 0.244,-0.427 q -0.61,0.244 -1.16,0.488 a 2.039,2.039 0 0 0 -0.916,0.855 z m -1.588,1.1 a 1.039,1.039 0 0 0 0.855,-0.306 6.69,6.69 0 0 1 0.488,-0.549 1.339,1.339 0 0 0 -1.343,0.855 z m 4.275,8.793 q -0.245,0.246 -0.367,0.123 c -0.081,-0.082 -0.04,-0.123 0.122,-0.123 a 5.122,5.122 0 0 1 1.161,-0.793 5.109,5.109 0 0 0 1.16,-0.793 2.867,2.867 0 0 1 1.344,-0.611 1.978,1.978 0 0 0 1.1,-0.488 1.067,1.067 0 0 0 0.306,-0.551 c 0.041,-0.2 0.224,-0.387 0.55,-0.549 h 0.977 c 0.163,-0.164 0.2,-0.285 0.122,-0.367 -0.078,-0.082 -0.041,-0.2 0.122,-0.365 h 0.856 a 2.916,2.916 0 0 0 0.427,-0.55 2.819,2.819 0 0 1 0.428,-0.55 3.057,3.057 0 0 0 1.038,-0.672 3.043,3.043 0 0 1 1.039,-0.672 0.906,0.906 0 0 1 0.672,-0.244 0.907,0.907 0 0 0 0.672,-0.245 q 0.244,0 0.183,-0.428 -0.061,-0.428 0.306,-0.183 a 1.038,1.038 0 0 0 -0.306,-0.855 q -0.305,-0.245 -0.672,-0.489 -3.542,2.2 -6.9,4.7 -3.358,2.5 -6.779,4.7 a 10.073,10.073 0 0 1 -1.833,1.044 3.523,3.523 0 0 0 -1.588,1.4 0.289,0.289 0 0 0 0.245,0.307 c 0.163,0.039 0.163,0.182 0,0.426 a 6.5,6.5 0 0 0 2.932,-1.588 6.716,6.716 0 0 1 2.687,-1.588 z m -24.549,-8.305 a 2.918,2.918 0 0 0 0.793,-0.183 q 0.55,-0.184 -0.061,-0.55 0,0.366 -0.489,0.427 -0.489,0.061 -0.244,0.305 z m 13.311,4.52 a 3.343,3.343 0 0 0 1.465,-0.551 12.822,12.822 0 0 0 1.221,-0.977 12.9,12.9 0 0 1 1.222,-0.977 4.87,4.87 0 0 1 1.469,-0.671 q 0,-0.855 0.733,-0.917 0.733,-0.062 0.366,-0.915 a 14.185,14.185 0 0 1 -3.237,2.381 11.334,11.334 0 0 0 -3.239,2.627 z m 6.962,8.549 a 1.057,1.057 0 0 0 0.427,0.918 2,2 0 0 1 0.672,0.914 q 1.221,-0.732 2.626,-1.525 a 7.455,7.455 0 0 0 2.381,-2.139 0.607,0.607 0 0 0 0.733,0 4.353,4.353 0 0 0 0.672,-0.549 4.364,4.364 0 0 1 0.672,-0.549 0.8,0.8 0 0 1 0.855,0 0.964,0.964 0 0 1 0.366,-1.223 1.312,1.312 0 0 1 1.222,-0.121 q 0.244,-0.979 0.794,-1.039 a 3.944,3.944 0 0 0 1.4,-0.549 c 0,-0.408 0.082,-0.652 0.245,-0.734 a 0.389,0.389 0 0 0 0.245,-0.365 5.261,5.261 0 0 0 2.687,-1.344 11.944,11.944 0 0 1 2.443,-1.832 1.312,1.312 0 0 0 -0.244,-0.733 0.719,0.719 0 0 0 -0.611,-0.366 q -4.4,2.809 -8.855,5.5 -4.455,2.691 -8.733,5.74 z m -10.99,-8.793 a 7.3,7.3 0 0 1 -1.954,1.1 1.811,1.811 0 0 0 -1.218,1.831 8.381,8.381 0 0 1 2.2,-1.588 5.581,5.581 0 0 0 2.077,-1.832 c -0.163,0 -0.2,-0.041 -0.123,-0.123 0.077,-0.082 0.041,-0.121 -0.122,-0.121 a 1.615,1.615 0 0 1 -0.549,0.365 c -0.2,0.082 -0.306,0.2 -0.306,0.367 z m 13.928,12.58 a 2.664,2.664 0 0 0 0.55,0.611 q 0.305,0.243 0.794,-0.611 a 1.485,1.485 0 0 0 -0.549,0.123 c -0.2,0.08 -0.306,0.041 -0.306,-0.123 a 8.133,8.133 0 0 0 2.076,-0.916 q 0.855,-0.548 1.649,-1.1 0.794,-0.552 1.648,-1.037 a 6.925,6.925 0 0 1 2.077,-0.734 c 0,-0.162 0.1,-0.285 0.306,-0.365 a 1.63,1.63 0 0 0 0.55,-0.367 20.691,20.691 0 0 0 3.175,-2.137 10.364,10.364 0 0 1 3.787,-1.895 1.837,1.837 0 0 1 1.283,-1.1 2.231,2.231 0 0 0 1.4,-1.1 0.392,0.392 0 0 1 -0.366,-0.244 0.49,0.49 0 0 0 -0.489,-0.244 q -4.4,2.563 -8.794,5.5 -4.394,2.937 -8.791,5.739 z m -30.17,1.344 a 3.3,3.3 0 0 0 -2.443,0.855 7.871,7.871 0 0 1 -2.077,1.465 2.5,2.5 0 0 1 0.061,1.467 1.286,1.286 0 0 0 0.183,1.221 2.059,2.059 0 0 0 0.855,-0.549 4.458,4.458 0 0 0 0.489,-0.795 c 0.163,-0.162 0.265,-0.2 0.306,-0.121 0.041,0.079 0.224,0.121 0.549,0.121 a 1.355,1.355 0 0 1 0.547,-0.793 3.647,3.647 0 0 1 0.978,-0.488 5.544,5.544 0 0 0 0.977,-0.428 0.711,0.711 0 0 0 0.427,-0.611 5.337,5.337 0 0 0 2.5,-1.527 4.616,4.616 0 0 1 2.5,-1.4 c -0.163,0 -0.245,-0.2 -0.245,-0.611 a 1.644,1.644 0 0 0 1.466,-0.732 1.686,1.686 0 0 1 1.71,-0.611 c 0,-0.406 0.1,-0.631 0.305,-0.67 0.205,-0.039 0.306,-0.143 0.306,-0.307 q 1.71,-0.976 3.42,-2.137 1.71,-1.161 3.42,-2.5 a 0.63,0.63 0 0 1 0.794,0.061 q 0.3,0.3 0.305,-0.3 0,-0.123 -0.183,-0.123 h -0.428 a 1.343,1.343 0 0 1 -0.427,-0.061 c -0.122,-0.041 -0.143,-0.143 -0.061,-0.307 q -0.244,-0.12 -0.183,-0.3 a 0.743,0.743 0 0 1 0.183,-0.3 0.354,0.354 0 0 0 0.122,-0.244 q 0,-0.123 -0.367,0 -3.908,2.686 -7.939,5.312 -4.031,2.626 -8.061,5.436 z m -4.52,-1.344 v 1.588 a 4.185,4.185 0 0 0 1.466,-1.037 1.183,1.183 0 0 1 1.466,-0.307 2.32,2.32 0 0 1 1.1,-1.221 9.307,9.307 0 0 1 1.588,-0.611 c -0.326,0 -0.489,-0.121 -0.489,-0.367 a 7.436,7.436 0 0 0 1.466,-0.488 3.424,3.424 0 0 0 1.1,-1.1 21.275,21.275 0 0 0 2.87,-1.467 6.8,6.8 0 0 0 2.016,-1.709 q 0.611,-0.246 1.16,-0.428 a 1.878,1.878 0 0 0 0.916,-0.672 0.753,0.753 0 0 1 0.549,-0.244 0.762,0.762 0 0 0 0.55,-0.244 c 0,-0.164 0.1,-0.285 0.305,-0.367 0.205,-0.082 0.1,-0.123 -0.305,-0.123 q -4.031,2.2 -7.756,4.4 -3.725,2.2 -8,4.4 z m 44.583,-3.541 a 4.415,4.415 0 0 0 2.382,-0.734 q 1.16,-0.732 2.138,-1.344 0.611,-0.243 0.977,-0.426 a 12.1,12.1 0 0 0 1.1,-0.672 7.531,7.531 0 0 1 1.894,-0.978 q 1.038,-0.366 0.793,-1.1 -2.2,1.345 -4.641,2.627 -2.441,1.282 -4.642,2.627 z m -4.033,5.861 q 0.367,0.246 0.489,0 c 0.081,-0.162 0.285,-0.244 0.61,-0.244 a 11.632,11.632 0 0 1 1.465,-1.221 2.937,2.937 0 0 1 1.711,-0.611 10.707,10.707 0 0 1 2.443,-2.2 5.169,5.169 0 0 1 1.527,-0.488 3.815,3.815 0 0 0 1.4,-0.488 7.152,7.152 0 0 0 1.527,-1.221 1.28,1.28 0 0 1 1.4,-0.367 1.058,1.058 0 0 0 0.306,-0.549 0.377,0.377 0 0 1 0.427,-0.307 1.5,1.5 0 0 0 0.855,-0.244 1.745,1.745 0 0 1 0.978,-0.244 c 0,-0.324 -0.041,-0.508 -0.123,-0.549 -0.082,-0.041 -0.122,-0.143 -0.122,-0.3 a 0.9,0.9 0 0 0 -1.161,0.121 3.928,3.928 0 0 1 -1.161,0.732 q -3.053,1.345 -5.863,2.871 -2.81,1.526 -5.619,3.236 a 18.044,18.044 0 0 1 -2.2,1.16 3.7,3.7 0 0 0 -1.832,1.772 0.589,0.589 0 0 0 -0.855,0 q 0,1.345 1.1,1.344 a 2.652,2.652 0 0 1 0.55,-0.609 0.664,0.664 0 0 0 0.305,-0.49 q 0.367,0.489 0.794,-0.184 a 2.231,2.231 0 0 1 1.038,-0.916 z m -32.86,1.344 a 2,2 0 0 0 1.771,-0.793 2,2 0 0 1 1.771,-0.795 0.392,0.392 0 0 1 0.366,-0.428 1.089,1.089 0 0 0 0.611,-0.3 c 0.326,-0.162 0.488,-0.346 0.488,-0.549 0,-0.203 0.123,-0.1 0.367,0.3 a 1.416,1.416 0 0 1 0.428,-1.039 3.489,3.489 0 0 1 0.916,-0.67 6.586,6.586 0 0 1 0.855,-0.367 c 0.244,-0.082 0.325,-0.2 0.244,-0.367 a 6.363,6.363 0 0 0 2.809,-1.588 4.482,4.482 0 0 1 3.3,-1.1 1.314,1.314 0 0 1 -0.122,-0.916 3.738,3.738 0 0 1 0.366,-0.672 8.608,8.608 0 0 0 -2.87,1.223 q -1.283,0.855 -2.749,1.709 -3.909,2.566 -7.878,5.314 -3.969,2.748 -7.873,5.313 a 14.055,14.055 0 0 0 3.786,-2.016 33.086,33.086 0 0 1 3.42,-2.26 z m 46.171,-7.205 q -3.176,1.708 -5.985,3.42 -2.809,1.712 -5.5,3.3 -1.222,0.612 -2.443,1.16 a 2.386,2.386 0 0 0 -1.466,1.771 3.673,3.673 0 0 0 1.771,-0.428 16.986,16.986 0 0 0 1.588,-0.977 q 0.795,-0.551 1.649,-1.039 a 7.211,7.211 0 0 1 1.832,-0.732 2.639,2.639 0 0 1 1.16,-0.855 q 0.672,-0.243 1.283,-0.488 a 0.216,0.216 0 0 0 0.244,-0.244 0.216,0.216 0 0 1 0.245,-0.244 1.493,1.493 0 0 1 1.1,-0.367 1,1 0 0 1 0.244,-0.732 5.933,5.933 0 0 1 0.916,-0.3 1.288,1.288 0 0 0 0.671,-0.551 19.726,19.726 0 0 1 2.993,-1.648 q 1.526,-0.671 2.871,-1.283 a 1.363,1.363 0 0 0 -0.733,-1.342 c 0,0.65 -0.264,1.018 -0.793,1.1 a 6.8,6.8 0 0 0 -1.649,0.49 z m -10.626,0.853 q 0.611,0.246 0.855,0 c 0.162,-0.162 0.325,-0.324 0.488,-0.488 a 1.822,1.822 0 0 0 -1.343,0.488 z m -0.611,10.139 a 4.4,4.4 0 0 0 2.321,-1.344 4.41,4.41 0 0 1 2.32,-1.344 c 0.163,0 0.245,0.061 0.245,0.184 v -0.184 h -0.245 a 8.086,8.086 0 0 0 2.687,-1.648 5.015,5.015 0 0 1 2.809,-1.283 15.077,15.077 0 0 1 1.591,-1.344 14.459,14.459 0 0 1 2.2,-1.344 4.85,4.85 0 0 1 1.4,-0.549 0.953,0.953 0 0 0 0.793,-1.039 1.729,1.729 0 0 0 -1.038,0.307 6.779,6.779 0 0 1 -0.916,0.549 q -3.42,1.588 -6.535,3.42 -3.115,1.832 -5.924,3.42 a 2.879,2.879 0 0 1 -1.222,0.611 3.85,3.85 0 0 0 -1.221,0.488 9.152,9.152 0 0 0 -0.977,0.795 1.8,1.8 0 0 0 -0.611,1.4 h 1.344 q 0.489,-1.1 0.977,-1.1 z m -4.519,-6.719 a 10.883,10.883 0 0 1 2.5,-1.525 5.4,5.4 0 0 0 2.015,-1.406 8.441,8.441 0 0 0 -2.443,1.223 9.988,9.988 0 0 0 -2.077,1.709 z m -18.076,-1.832 q -2.81,1.222 -5.313,2.566 -2.503,1.344 -5.069,2.809 -2.443,1.345 -4.825,2.871 -2.382,1.526 -4.825,3.236 c 0.163,0 0.244,0.162 0.244,0.488 q 0.611,0.489 0.916,0 a 2.359,2.359 0 0 1 0.672,-0.732 3.561,3.561 0 0 0 2.138,-0.916 24.311,24.311 0 0 1 2.138,-1.527 2.119,2.119 0 0 0 1.222,-0.428 4.889,4.889 0 0 1 1.465,-0.672 c 0,-0.406 0.1,-0.631 0.306,-0.672 a 1.054,1.054 0 0 0 0.549,-0.3 19.949,19.949 0 0 0 5.191,-3.115 24.269,24.269 0 0 1 5.436,-3.359 q 0.366,-0.243 0.55,0 0.184,0.243 0.793,0 a 1.084,1.084 0 0 1 -0.244,-0.793 q 0,-0.551 -0.611,-0.307 a 5.711,5.711 0 0 1 -0.733,0.855 z m 30.17,6.963 q 0.366,-0.243 0.061,-0.428 c -0.2,-0.121 -0.142,-0.184 0.183,-0.184 q 0.367,0.489 0.428,0 c 0.041,-0.326 0.346,-0.406 0.916,-0.244 q 0.366,-1.588 2.687,-1.588 -0.244,-0.366 0.122,-0.3 a 0.662,0.662 0 0 0 0.611,-0.184 6.1,6.1 0 0 1 2.077,-1.344 7.6,7.6 0 0 0 2.2,-1.344 c 0,-0.162 0.02,-0.244 0.061,-0.244 h -0.306 q -3.42,1.711 -6.779,3.664 -3.359,1.953 -6.9,3.787 c -0.651,0.408 -1.364,0.834 -2.138,1.283 a 4.95,4.95 0 0 0 -1.771,1.648 16.255,16.255 0 0 0 4.275,-2.2 19.331,19.331 0 0 1 4.275,-2.32 z m -32,-2.932 a 2.148,2.148 0 0 1 -0.916,0.428 c -0.448,0.123 -0.509,0.346 -0.183,0.672 a 2.819,2.819 0 0 1 1.832,-1.1 12.482,12.482 0 0 1 2.443,-0.244 v -1.343 a 17.926,17.926 0 0 0 -1.71,0.732 13.549,13.549 0 0 0 -1.466,0.855 z m 38.843,2.932 a 12.23,12.23 0 0 1 1.893,-1.1 5.77,5.77 0 0 0 1.649,-1.1 11.539,11.539 0 0 1 -1.894,0.855 3.13,3.13 0 0 0 -1.649,1.344 z m -5.008,5.008 q 0.977,-0.609 1.832,-1.16 a 9.592,9.592 0 0 1 1.833,-0.916 c 0.163,0 0.224,0.041 0.183,0.123 -0.041,0.082 0.02,0.039 0.184,-0.123 a 0.806,0.806 0 0 0 0.488,-0.184 q 0.245,-0.182 0,-0.428 a 14.649,14.649 0 0 0 3.787,-1.588 25.706,25.706 0 0 1 3.664,-1.832 1.437,1.437 0 0 0 -1.772,0 14.447,14.447 0 0 1 -1.648,1.1 19.674,19.674 0 0 1 -2.016,1.1 10.947,10.947 0 0 1 -2.016,0.732 31.356,31.356 0 0 1 -5.985,3.481 25.434,25.434 0 0 0 -5.741,3.482 32.63,32.63 0 0 0 3.725,-1.772 q 2.139,-1.16 3.481,-2.016 z m -37.135,-5.619 q 0.489,-0.243 0.122,-0.428 a 0.433,0.433 0 0 0 -0.61,0.184 q 0.244,0 0.244,0.123 c 0,0.08 0.081,0.121 0.244,0.121 z m -1.832,0.855 q 0,-0.366 0.428,-0.3 c 0.285,0.041 0.427,-0.022 0.427,-0.184 a 5.111,5.111 0 0 0 -0.855,0.123 c -0.407,0.08 -0.407,0.2 0,0.365 z m 8.062,1.1 a 1.3,1.3 0 0 1 -0.183,-0.793 0.582,0.582 0 0 0 -0.184,-0.551 4.507,4.507 0 0 0 -1.649,0.367 c -0.61,0.244 -0.834,0.568 -0.671,0.976 a 1.251,1.251 0 0 1 1.527,-0.551 3.4,3.4 0 0 1 1.16,0.551 z m 34.567,-0.855 a 1.516,1.516 0 0 0 1.1,-0.488 1.289,1.289 0 0 0 -1.1,0.488 z m 9.161,0 q -6.6,3.056 -13.009,6.351 -6.409,3.295 -12.886,6.475 v 0.793 a 1.407,1.407 0 0 0 0.244,0.795 q 3.054,-1.831 5.8,-3.176 a 49.2,49.2 0 0 0 5.191,-2.932 v 0.488 c 0.326,0.162 0.427,0.041 0.306,-0.367 -0.121,-0.408 -0.061,-0.609 0.183,-0.609 a 0.215,0.215 0 0 1 0.244,0.244 0.216,0.216 0 0 0 0.244,0.244 0.5,0.5 0 0 0 -0.122,-0.367 c -0.081,-0.08 -0.041,-0.121 0.122,-0.121 q 0.855,-0.489 0.917,-0.307 0.062,0.182 0.427,-0.3 h 0.61 a 3.619,3.619 0 0 0 0.733,-0.672 2.746,2.746 0 0 1 0.855,-0.672 0.289,0.289 0 0 1 0.306,0.244 q 0.062,0.246 0.428,0 a 1.458,1.458 0 0 1 1.282,-0.977 1.731,1.731 0 0 0 1.405,-0.855 c 0.162,0.326 0.2,0.449 0.122,0.367 -0.078,-0.082 -0.041,-0.2 0.122,-0.367 h 0.609 q 0.611,-0.366 1.344,-0.855 a 2.818,2.818 0 0 1 1.588,-0.488 c -0.163,0 -0.245,-0.162 -0.245,-0.488 a 2.74,2.74 0 0 0 2.016,-0.672 3.6,3.6 0 0 1 1.894,-0.916 q 0,-0.855 -0.733,-0.855 z m -10.749,1.1 q -0.244,-0.366 -0.672,-0.061 a 5.473,5.473 0 0 0 -0.672,0.549 c 0.57,-0.162 1.1,-0.326 1.588,-0.488 a 3.409,3.409 0 0 0 1.344,-0.855 q -0.733,-0.243 -0.916,0.123 a 2.206,2.206 0 0 1 -0.672,0.732 z m -63.76,13.314 c 0,-0.164 0.061,-0.244 0.183,-0.244 0.122,0 0.183,-0.082 0.183,-0.244 a 17.744,17.744 0 0 1 3.054,-1.527 q 1.71,-0.671 3.3,-1.4 a 0.5,0.5 0 0 1 0.123,-0.367 0.351,0.351 0 0 1 0.122,-0.244 2.94,2.94 0 0 0 2.076,-0.793 1.743,1.743 0 0 1 1.71,-0.551 1.506,1.506 0 0 1 1.161,-1.1 4.807,4.807 0 0 0 1.771,-0.732 h -0.122 a 0.353,0.353 0 0 1 0.122,-0.244 c 0.163,-0.082 0.469,-0.2 0.916,-0.367 a 10.725,10.725 0 0 0 1.16,-0.488 1.9,1.9 0 0 0 0.672,-0.488 c 0.122,-0.162 -0.021,-0.244 -0.428,-0.244 a 0.481,0.481 0 0 1 0.611,-0.061 0.6,0.6 0 0 0 0.733,-0.184 1.076,1.076 0 0 1 0.122,-0.488 1.1,1.1 0 0 1 0.732,-0.611 3.88,3.88 0 0 0 1.71,-0.916 3.882,3.882 0 0 1 1.71,-0.916 q 0.243,-0.243 0.427,0 0.184,0.243 0.183,0 a 0.325,0.325 0 0 0 0.367,-0.367 q 0,-0.366 0.366,0 -0.245,-0.732 0.305,-0.549 0.55,0.183 0.55,-0.428 -7.084,3.053 -13.62,6.229 a 135.29,135.29 0 0 0 -12.764,7.086 v 1.344 a 2.926,2.926 0 0 0 1.161,-0.672 1.933,1.933 0 0 1 1.4,-0.428 z m 60.829,-11.726 a 1.833,1.833 0 0 0 0.977,-0.3 0.479,0.479 0 0 0 0.122,-0.795 1.09,1.09 0 0 1 -0.672,0.611 c -0.285,0.082 -0.427,0.244 -0.427,0.488 z m -3.176,0 q 0,-0.366 0.549,-0.3 0.549,0.066 0.55,-0.551 a 2.378,2.378 0 0 0 -0.917,0.244 q -0.549,0.246 -0.183,0.611 z m 3.789,8.548 a 1.869,1.869 0 0 1 2.076,-1.344 1.108,1.108 0 0 1 0.611,-0.979 1.312,1.312 0 0 1 1.222,-0.121 8.61,8.61 0 0 1 2.076,-1.283 5.471,5.471 0 0 0 1.955,-1.4 h 1.344 a 0.5,0.5 0 0 0 -0.122,-0.365 q -0.122,-0.123 0.122,-0.123 a 3.985,3.985 0 0 0 1.282,-0.428 q 0.55,-0.3 1.1,-0.672 a 7.515,7.515 0 0 1 1.1,-0.611 2.215,2.215 0 0 1 1.283,-0.121 0.507,0.507 0 0 1 0.061,-0.551 0.916,0.916 0 0 1 0.427,-0.244 2.365,2.365 0 0 0 0.489,-0.182 0.807,0.807 0 0 0 0.367,-0.367 5.213,5.213 0 0 0 -1.527,0.244 c -0.529,0.162 -1,0.326 -1.4,0.488 q -6.474,3.176 -12.887,6.414 -6.413,3.238 -12.4,6.412 a 1.309,1.309 0 0 1 0.061,1.037 q -0.183,0.551 0.183,0.551 1.71,-1.1 3.176,-1.955 1.466,-0.855 2.932,-1.588 1.466,-0.732 2.992,-1.527 1.526,-0.795 3.481,-1.769 v 0.244 c -0.163,0 -0.244,0.041 -0.244,0.121 0,0.08 0.081,0.123 0.244,0.123 z m -44.583,-1.344 c 0.407,0.162 0.57,0.2 0.489,0.121 a 3.7,3.7 0 0 0 -0.489,-0.365 3.382,3.382 0 0 1 2.443,-1.1 c 0.245,-0.162 0.692,-0.469 1.344,-0.916 a 3.274,3.274 0 0 1 1.832,-0.672 0.7,0.7 0 0 0 -0.245,-0.488 22.177,22.177 0 0 0 3.42,-1.711 q 1.343,-0.856 2.931,-2.076 -7.819,3.544 -15.27,7.451 -7.451,3.907 -14.291,8.307 a 2.461,2.461 0 0 0 1.587,-0.49 17.314,17.314 0 0 1 1.588,-1.1 h 1.1 a 8.628,8.628 0 0 0 0.794,-0.611 7.6,7.6 0 0 1 1.039,-0.732 q 0.976,-0.366 1.954,-0.672 c 0.651,-0.205 0.9,-0.428 0.733,-0.672 a 0.613,0.613 0 0 0 0.733,0 9.076,9.076 0 0 0 0.733,-0.551 1.559,1.559 0 0 1 0.733,-0.365 q 0.366,-0.062 0.732,0.426 c 0.082,-0.244 0.082,-0.385 0,-0.426 a 2.351,2.351 0 0 0 -0.305,-0.123 0.76,0.76 0 0 1 -0.305,-0.184 c -0.081,-0.08 -0.081,-0.2 0,-0.365 q 0.855,0.366 0.977,0.061 c 0.081,-0.2 0.407,-0.225 0.977,-0.061 0,-0.734 0.163,-1.018 0.489,-0.855 0.163,0 0.163,0.082 0,0.244 q 0.855,-0.609 1.954,-1.283 a 2.3,2.3 0 0 1 2.077,-0.3 0.811,0.811 0 0 0 -0.061,-0.428 c -0.041,-0.041 0.061,-0.061 0.305,-0.061 z m 39.7,-6.719 c 0.407,0 0.611,-0.162 0.611,-0.488 -0.407,0 -0.611,0.162 -0.611,0.488 z m 1.344,1.711 a 5.961,5.961 0 0 0 0.732,-0.855 q 0.244,-0.366 0.855,0 a 0.583,0.583 0 0 1 0.549,-0.672 0.583,0.583 0 0 0 0.55,-0.672 q -1.71,0.855 -3.359,1.648 a 19.464,19.464 0 0 0 -2.993,1.771 q 0.367,0.489 1.161,-0.121 c 0.529,-0.408 0.916,-0.529 1.161,-0.367 q 0,-0.123 0.305,-0.428 a 7.369,7.369 0 0 1 0.611,-0.549 0.887,0.887 0 0 1 0.488,-0.244 c 0.123,0 0.1,0.162 -0.061,0.488 z m -2.321,-1.1 c 0.081,0 0.2,-0.082 0.366,-0.244 a 0.939,0.939 0 0 1 0.122,-0.367 c -0.244,-0.162 -0.346,-0.143 -0.306,0.06 a 0.583,0.583 0 0 1 -0.183,0.551 z m -1.588,0.732 c 0,-0.162 0.143,-0.244 0.427,-0.244 0.284,0 0.224,-0.082 -0.184,-0.244 0,0.162 -0.142,0.244 -0.427,0.244 -0.285,0 -0.224,0.082 0.184,0.244 z m 2.32,11.727 a 8.98,8.98 0 0 0 1.405,-1.1 1.505,1.505 0 0 1 1.526,-0.488 5.178,5.178 0 0 1 1.344,-0.979 11.044,11.044 0 0 0 1.1,-0.609 0.477,0.477 0 0 1 0.549,-0.123 1.494,1.494 0 0 0 0.55,0.123 2.152,2.152 0 0 0 0.672,-0.856 q 0.3,-0.609 1.16,-0.244 a 2.216,2.216 0 0 1 1.527,-0.855 q 1.16,-0.243 1.16,-0.732 c 0,0.162 -0.1,0.244 -0.305,0.244 -0.205,0 -0.305,-0.082 -0.305,-0.244 a 1.462,1.462 0 0 0 1.466,-0.3 0.952,0.952 0 0 1 1.221,-0.184 1.779,1.779 0 0 1 1.588,-1.467 3.7,3.7 0 0 0 2.2,-1.221 c 0,0.406 0.082,0.611 0.244,0.611 q 0,-0.855 0.611,-0.855 a 1.742,1.742 0 0 1 0.977,0.244 0.3,0.3 0 0 0 0,-0.488 c -0.163,-0.162 -0.163,-0.244 0,-0.244 a 2.28,2.28 0 0 0 1.588,-0.551 3.838,3.838 0 0 1 1.832,-0.793 q -0.244,-0.978 -0.794,-0.611 a 9.965,9.965 0 0 1 -1.038,0.611 17.671,17.671 0 0 0 -3.665,1.4 q -1.466,0.794 -3.3,1.772 -3.42,1.831 -7.023,3.6 -3.603,1.769 -6.779,3.6 -1.222,0.609 -2.382,1.16 a 7.605,7.605 0 0 0 -2.138,1.527 2.394,2.394 0 0 0 1.4,-0.184 13.11,13.11 0 0 0 1.283,-0.672 q 0.61,-0.366 1.16,-0.732 a 2.044,2.044 0 0 1 1.16,-0.367 z m -31.152,-7.449 q -4.641,2.686 -9.528,5.068 -4.887,2.382 -9.771,4.582 h 2.2 a 14.2,14.2 0 0 0 1.955,-0.916 9.733,9.733 0 0 1 2.565,-0.916 8.681,8.681 0 0 0 1.527,-1.1 3.877,3.877 0 0 1 1.893,-0.855 c 0,-0.326 0.122,-0.488 0.366,-0.488 a 0.7,0.7 0 0 0 0.855,0.121 4.387,4.387 0 0 0 0.672,-0.549 4.359,4.359 0 0 1 0.672,-0.549 0.8,0.8 0 0 1 0.732,-0.123 q 0,-0.855 0.611,-0.795 a 12.188,12.188 0 0 0 1.222,0.063 0.9,0.9 0 0 0 0.427,-0.551 1.062,1.062 0 0 1 0.306,-0.549 q 0.489,0.609 0.793,0.184 a 5.381,5.381 0 0 1 0.55,-0.672 h -0.245 q 0.611,-0.246 1.038,-0.428 a 2.289,2.289 0 0 1 0.916,-0.184 q 0,-0.366 0.61,-0.549 a 4.205,4.205 0 0 1 1.222,-0.184 2.974,2.974 0 0 1 2.015,-1.588 4.39,4.39 0 0 0 2.26,-1.344 c -0.163,0 -0.244,-0.2 -0.244,-0.611 a 12.465,12.465 0 0 0 -2.871,1.4 20.661,20.661 0 0 1 -2.748,1.527 z m 23.207,0.856 a 1.7,1.7 0 0 0 1.466,-0.672 1.98,1.98 0 0 1 1.71,-0.672 1.391,1.391 0 0 1 0.549,-0.672 7.019,7.019 0 0 1 0.916,-0.551 4.886,4.886 0 0 0 0.733,-0.428 c 0.162,-0.121 0.122,-0.3 -0.122,-0.549 a 11.468,11.468 0 0 1 -2.871,1.648 4.746,4.746 0 0 0 -2.382,1.895 z m 0.977,-2.687 a 0.507,0.507 0 0 0 0.55,-0.061 0.532,0.532 0 0 0 0.184,-0.367 c 0,-0.121 -0.061,-0.162 -0.184,-0.121 -0.123,0.041 -0.305,0.223 -0.55,0.549 z m -51.423,1.343 q 0.855,-0.366 1.71,-0.672 a 8.247,8.247 0 0 0 1.466,-0.672 11.556,11.556 0 0 0 -1.588,-0.307 5.29,5.29 0 0 0 -1.832,0.307 c 0.244,0 0.346,0.162 0.305,0.488 a 7.06,7.06 0 0 0 -0.061,0.855 z m 75.242,2.687 a 11.063,11.063 0 0 0 3.542,-1.711 8.28,8.28 0 0 1 3.665,-1.465 0.708,0.708 0 0 0 -0.244,-0.49 q -0.245,-0.243 0,-0.609 a 108.7,108.7 0 0 0 -13.009,5.5 q -6.046,3.053 -12.153,6.23 a 25.173,25.173 0 0 1 2.626,0.121 18.7,18.7 0 0 0 1.894,0.123 2.254,2.254 0 0 1 1.77,-1.467 24.8,24.8 0 0 0 2.5,-0.609 1.278,1.278 0 0 1 0.855,-0.8 3.508,3.508 0 0 0 1.1,-0.549 q 0.365,0.243 0.549,0 0.184,-0.243 0.794,0 a 1.637,1.637 0 0 1 0.55,-1.162 q 0.549,-0.548 1.038,0.307 a 0.665,0.665 0 0 1 0.55,-0.734 4.475,4.475 0 0 0 1.039,-0.365 11.007,11.007 0 0 0 1.343,-0.977 4.294,4.294 0 0 1 1.588,-0.855 c 0,0.326 0.082,0.406 0.244,0.244 0,-0.162 -0.04,-0.266 -0.122,-0.3 -0.082,-0.034 -0.122,-0.184 -0.122,-0.428 z m -24.8,-3.543 a 0.338,0.338 0 0 0 0.489,0.06 0.641,0.641 0 0 0 0.244,-0.549 q -0.366,-0.246 -0.549,0 a 0.813,0.813 0 0 0 -0.184,0.488 z m 39.7,-0.244 h 0.244 v -0.244 h -0.244 z m -51.423,1.588 q 0.61,0.243 0.671,-0.123 c 0.041,-0.244 0.265,-0.283 0.672,-0.121 -0.163,-0.406 -0.224,-0.652 -0.183,-0.733 0.041,-0.081 -0.02,-0.285 -0.183,-0.611 -0.163,0.162 -0.428,0.184 -0.794,0.061 -0.366,-0.123 -0.55,-0.061 -0.55,0.184 0.407,0.162 0.529,0.326 0.367,0.488 -0.162,0.162 -0.163,0.449 0,0.855 z m -32.369,-0.488 q 0,-0.366 0.428,-0.3 c 0.285,0.039 0.428,-0.022 0.428,-0.184 q -0.245,-0.489 -0.733,-0.123 c -0.326,0.244 -0.367,0.449 -0.123,0.611 z m 49.714,0 q -0.855,0.366 -0.244,0.365 0.611,-0.001 0.244,-0.365 z m -35.3,9.648 a 6.465,6.465 0 0 0 -0.732,0.063 c -0.326,0.041 -0.407,0.264 -0.245,0.672 a 10.013,10.013 0 0 0 4.459,-1.711 32.89,32.89 0 0 1 4.337,-2.565 c -0.245,0 -0.367,-0.082 -0.367,-0.244 a 0.656,0.656 0 0 0 0.916,-0.307 c 0.2,-0.365 0.468,-0.346 0.793,0.063 q 0,-0.856 0.672,-0.916 a 1.159,1.159 0 0 0 0.916,-0.428 h 0.977 a 4.377,4.377 0 0 1 2.748,-1.832 5.862,5.862 0 0 0 3.115,-1.955 q -4.641,2.077 -9.1,4.519 -4.459,2.442 -8.49,4.641 z m -7.207,0.49 a 5.662,5.662 0 0 0 1.527,0.244 h 1.4 a 4.131,4.131 0 0 1 1.344,-0.916 3.433,3.433 0 0 0 1.1,-0.672 q 0,-0.123 0.245,-0.123 a 0.351,0.351 0 0 1 0.244,0.123 1.186,1.186 0 0 0 0.611,-0.551 1.226,1.226 0 0 1 0.488,-0.549 c 0.163,0 0.244,0.041 0.244,0.121 0,0.08 0.081,0.123 0.245,0.123 a 0.348,0.348 0 0 1 0.122,-0.244 0.707,0.707 0 0 0 0.244,-0.488 2.764,2.764 0 0 1 0.856,-0.244 1.888,1.888 0 0 0 0.733,-0.244 2.647,2.647 0 0 0 0.366,-0.551 q 0,-0.062 0.367,-0.3 h 1.1 a 1.735,1.735 0 0 1 1.16,-0.795 2.233,2.233 0 0 0 1.283,-0.793 q 0.977,-0.612 1.649,-1.1 0.672,-0.488 1.527,-1.1 0.366,0.489 1.038,-0.123 0.672,-0.612 0.305,-0.853 a 93.573,93.573 0 0 1 -9.036,4.516 q -4.764,2.074 -9.161,4.519 z m -12.214,-7.451 q 0.977,-0.246 0.672,-0.551 -0.305,-0.305 -0.672,0.551 z m 23.941,7.207 a 2.656,2.656 0 0 0 1.465,0.121 4.524,4.524 0 0 1 1.832,0.123 12.83,12.83 0 0 0 1.1,-0.734 1.979,1.979 0 0 1 1.221,-0.365 7.219,7.219 0 0 1 2.138,-2.016 9.619,9.619 0 0 1 2.748,-1.16 1.7,1.7 0 0 1 0.855,-1.039 q 0.61,-0.3 1.221,-0.549 a 3.816,3.816 0 0 0 1.1,-0.672 2.592,2.592 0 0 0 0.733,-1.16 72.841,72.841 0 0 0 -7.39,3.48 q -3.482,1.893 -7.023,3.971 z m 47.515,-1.955 a 17.526,17.526 0 0 1 3.909,-1.955 15.133,15.133 0 0 0 3.786,-1.953 q -2.2,0.732 -4.458,1.709 a 8.306,8.306 0 0 0 -3.237,2.2 z m 8.794,0.855 c -0.57,0.244 -1.079,0.467 -1.527,0.672 a 3.122,3.122 0 0 0 -1.16,0.916 2.927,2.927 0 0 0 2.137,-0.672 2.554,2.554 0 0 1 1.893,-0.672 2.753,2.753 0 0 1 1.405,-1.223 4.292,4.292 0 0 1 1.527,-0.365 1.3,1.3 0 0 1 0.732,-0.795 0.9,0.9 0 0 1 0.855,0.063 q 0,-0.489 0.306,-0.551 a 1.074,1.074 0 0 0 0.55,-0.3 1.362,1.362 0 0 1 0.549,-0.244 q 0.428,-0.123 0.794,-0.246 a 0.9,0.9 0 0 0 0.489,-0.3 c 0.082,-0.121 0,-0.3 -0.244,-0.549 q -2.077,1.222 -4.275,2.26 -2.198,1.038 -4.031,2.016 z m -7.207,1.344 q 1.466,0.243 1.955,-0.307 a 2.776,2.776 0 0 1 1.222,-0.793 c 0.326,0 0.529,-0.082 0.611,-0.244 0.082,-0.162 0.325,-0.164 0.733,0 a 5.354,5.354 0 0 1 1.465,-1.223 q 0.855,-0.486 1.771,-0.916 0.916,-0.43 1.71,-0.856 a 4.123,4.123 0 0 0 1.282,-1.037 47.946,47.946 0 0 1 -5.5,2.564 25,25 0 0 0 -5.252,2.811 z m -35.177,-4.519 a 29.042,29.042 0 0 1 -3.786,2.137 23.2,23.2 0 0 0 -3.664,2.139 7.9,7.9 0 0 0 2.688,-0.367 q 0.977,-0.366 2.32,-0.733 a 2.2,2.2 0 0 1 1.588,-1.467 1.69,1.69 0 0 0 1.344,-1.465 c 0,-0.164 -0.163,-0.244 -0.489,-0.244 z m 44.339,4.519 a 1.268,1.268 0 0 0 1.222,-0.123 1.061,1.061 0 0 1 1.1,-0.121 q 0,-0.612 0.427,-0.428 a 1.867,1.867 0 0 0 0.671,0.182 16.2,16.2 0 0 0 1.527,-0.977 4.7,4.7 0 0 1 1.649,-0.732 0.474,0.474 0 0 1 0.305,-0.488 3.46,3.46 0 0 1 0.611,-0.184 1.072,1.072 0 0 0 0.55,-0.3 0.93,0.93 0 0 0 0.122,-0.856 q -2.2,0.976 -4.336,1.893 a 20.477,20.477 0 0 0 -3.848,2.139 z m -84.4,-1.1 q 0.611,0.243 1.955,-1.1 c -0.408,0.162 -0.794,0.326 -1.161,0.488 a 1.8,1.8 0 0 0 -0.794,0.611 z m 72.066,-0.488 c 0.57,0 0.855,-0.205 0.855,-0.611 q -0.856,0.489 -0.855,0.611 z m -33.595,1.589 a 3.658,3.658 0 0 1 1.527,0.3 1.075,1.075 0 0 0 1.161,-0.061 1.113,1.113 0 0 1 -0.611,-0.795 c -0.082,-0.365 -0.245,-0.549 -0.489,-0.549 a 0.928,0.928 0 0 1 -0.915,0.488 q -0.672,0 -0.672,0.611 z m 51.179,-0.244 a 1.942,1.942 0 0 1 0.978,0 6.021,6.021 0 0 0 1.16,0.121 1.659,1.659 0 0 0 0.855,-0.184 c 0.2,-0.121 0.265,-0.387 0.183,-0.793 a 2.055,2.055 0 0 1 -1.649,0.488 1.929,1.929 0 0 0 -1.527,0.367 z m -18.079,0.244 a 1.485,1.485 0 0 0 0.855,-0.184 8.01,8.01 0 0 0 0.733,-0.672 5.32,5.32 0 0 1 -0.916,0.365 1.173,1.173 0 0 0 -0.672,0.49 z m -5.374,0 a 1.518,1.518 0 0 0 1.1,-0.49 q -1.1,0 -1.1,0.49 z"
           id="path28" />
      </g>
    </g>
  </g>
</svg>
